<svg width="117" height="152" viewBox="0 0 117 152" fill="none" xmlns="http://www.w3.org/2000/svg">
<path fill-rule="evenodd" clip-rule="evenodd" d="M82.3573 78.1184C79.0919 81.7545 75.7043 85.2724 72.3269 88.7725C68.9881 92.2472 65.6135 95.7013 62.1525 99.0578C58.7093 102.425 55.1617 105.684 51.4591 108.758C49.7963 110.154 48.1232 111.568 46.3306 112.818C44.9049 113.803 43.2903 114.704 41.5557 114.987C39.8569 115.292 38.1329 114.939 36.7647 113.887C35.3074 112.784 34.4022 111.095 33.9908 109.335C33.2887 106.264 34.1946 103.169 35.3224 100.227C35.3692 99.651 35.4221 99.0786 35.4808 98.5096C35.6967 96.3495 35.9739 94.1931 36.3124 92.0404C37.7242 83.2882 40.1322 74.7067 42.9179 66.2956C42.9385 66.2599 42.9531 66.2207 42.9618 66.1782C43.7376 63.8178 44.5312 61.4677 45.3426 59.1279C46.8237 54.9137 48.3507 50.7024 49.8675 46.5089C51.4901 42.0909 53.184 37.7141 55.202 33.4768C55.7645 32.3102 56.3483 31.1479 56.9534 29.99C58.9981 23.769 61.9856 17.6877 67.1758 13.5208C68.4561 12.4988 69.866 11.6231 71.4153 11.042C72.729 10.5391 74.0975 10.3535 75.4962 10.2805C76.2612 9.9447 77.0507 9.66274 77.8647 9.43458C81.9471 8.3407 86.4198 8.5907 90.3393 10.211C93.899 11.6713 96.9606 14.2005 99.2709 17.2478C99.9316 18.137 100.533 19.0472 101.074 19.9785C102.303 21.1881 103.338 22.5706 104.008 24.1714C104.752 25.9335 105.109 27.8294 105.208 29.7191C105.41 33.1201 104.991 36.5669 104.273 39.9126C103.502 44.7511 101.805 49.3401 99.551 53.6556C99.3394 54.1045 99.1253 54.5442 98.9086 54.9744C94.6295 63.499 88.7007 71.0474 82.3573 78.1184ZM36.4892 99.4012C36.4487 100.076 36.4176 100.748 36.3959 101.418C36.3125 104.654 36.2349 108.869 38.7527 111.227C38.8122 111.262 38.8752 111.29 38.9415 111.312C40.5967 112.197 42.516 111.758 44.1477 111.034C46.0205 110.14 47.721 108.885 49.3576 107.616C52.7951 104.96 55.9656 101.983 59.075 98.947C62.2775 95.8458 65.4046 92.6693 68.4561 89.4174C74.5824 82.8874 80.4004 76.108 85.9026 69.0511C91.4227 62.0045 96.9593 54.6819 100.287 46.3218C103.149 39.0972 104.39 30.8889 101.687 23.4503C101.301 22.3468 100.81 21.3016 100.252 20.2893C98.1898 18.3372 95.581 16.8786 93.1658 15.5794C89.9371 13.8343 86.4845 12.4359 82.8833 11.6657C82.1481 11.8124 81.4161 12.0086 80.6872 12.2541C78.7363 12.9127 76.7325 13.3742 74.8852 14.3067C73.1786 15.2015 71.5811 16.2784 70.1134 17.5015C71.658 16.9971 73.2228 16.5677 74.8077 16.2135C75.2513 16.1047 75.6974 16.0052 76.146 15.9152C76.3154 15.7592 76.4942 15.6006 76.6824 15.4395C76.6824 15.4395 76.6859 15.4336 76.6927 15.4217C75.2786 15.7 73.8862 16.0781 72.5156 16.5561C72.4311 16.5787 72.3934 16.4379 72.4881 16.3974C73.5191 16.0407 74.5652 15.7403 75.6264 15.4962C76.0631 15.3993 76.5023 15.3118 76.9441 15.2336C78.0014 14.3368 79.073 13.4562 80.1591 12.5918C80.2463 12.5232 80.3507 12.631 80.2634 12.6996C80.1146 12.82 79.9692 12.9344 79.8273 13.0428C78.9601 13.7479 78.0988 14.4565 77.2435 15.1685C78.6148 14.9369 80.0087 14.7897 81.3868 14.7524C83.3197 14.7022 85.2519 14.8181 87.1627 15.136C87.2725 15.1518 87.2361 15.2974 87.1263 15.2815C86.0533 15.1063 84.9767 14.9925 83.8964 14.9399C81.9643 14.824 80.0286 14.9201 78.11 15.1928C77.7433 15.2508 77.3767 15.3088 77.01 15.3669C76.8218 15.5279 76.6336 15.689 76.4454 15.8501C77.648 15.6083 78.8547 15.4006 80.0656 15.2271C80.1679 15.2148 80.2131 15.3837 80.1108 15.396C79.1115 15.533 78.1232 15.6922 77.1458 15.8737C76.8285 15.9285 76.5138 15.9927 76.2016 16.0663C75.3119 16.8378 74.4213 17.6246 73.5298 18.4268C74.1868 18.2508 74.8428 18.0901 75.4979 17.9447C76.5828 17.7143 77.6779 17.5215 78.7829 17.3662C79.592 16.7069 80.3986 16.0381 81.2026 15.36C81.2795 15.3092 81.3839 15.417 81.3248 15.4781C81.1503 15.6154 80.9853 15.7501 80.8296 15.8824C80.2531 16.3587 79.6732 16.841 79.0899 17.3293C79.1581 17.321 79.2357 17.3103 79.3227 17.2971C80.5998 17.146 81.8827 17.0537 83.1713 17.0202C84.46 16.9867 85.7508 17.0181 87.044 17.1141C87.136 17.1197 87.1455 17.268 87.0432 17.2803C85.6036 17.1631 84.1619 17.132 82.7181 17.1869C81.4226 17.2323 80.1354 17.3458 78.8563 17.5276C78.2098 18.0429 77.5692 18.5615 76.9346 19.0836C76.4113 19.4954 75.8973 19.9047 75.3927 20.3115C76.0322 20.2206 76.6768 20.1485 77.3264 20.0952C78.5949 19.9866 79.8716 19.9463 81.1565 19.9742C81.4935 19.6927 81.833 19.4207 82.175 19.1581C82.2623 19.0894 82.3666 19.1973 82.2972 19.2762C82.1296 19.4016 81.9586 19.5329 81.7842 19.6702C81.6166 19.7956 81.4456 19.9269 81.2711 20.0642C81.2684 20.1102 81.2581 20.128 81.212 20.1252C81.2052 20.1371 81.2017 20.1431 81.2017 20.1431C80.0456 21.0463 78.8954 21.953 77.7512 22.8631C77.2929 23.2173 76.8405 23.5749 76.3941 23.9359C76.747 23.9017 77.1025 23.8769 77.4604 23.8614C78.8754 23.774 80.2885 23.7172 81.6998 23.6911C83.1161 23.6838 84.5306 23.7071 85.9432 23.7611C86.0352 23.7667 86.0448 23.915 85.9425 23.9273C85.7704 23.9231 85.5923 23.9155 85.4083 23.9045C84.0075 23.8573 82.5956 23.8434 81.1724 23.8626C79.773 23.8956 78.3718 23.9592 76.9687 24.0535C76.7028 24.0745 76.4368 24.0955 76.1708 24.1164C75.55 24.6147 74.9266 25.1036 74.3007 25.5832C75.4803 25.5186 76.6556 25.4752 77.8266 25.4532C79.5395 25.4267 81.2557 25.4497 82.975 25.5221C84.7012 25.5826 86.4212 25.6951 88.135 25.8595C88.227 25.865 88.2262 26.0312 88.1342 26.0257C87.9264 26.0009 87.7152 25.9821 87.5005 25.9692C85.7986 25.8116 84.0811 25.7085 82.348 25.6599C80.6406 25.5944 78.933 25.5842 77.2251 25.6294C76.1768 25.6589 75.1276 25.7036 74.0775 25.7637C73.9543 25.8671 73.8345 25.9646 73.7182 26.0561C72.5296 26.9882 71.3469 27.9237 70.1702 28.8626C70.9717 28.7384 71.7793 28.6175 72.5928 28.5002C72.8844 28.4623 73.1759 28.4243 73.4676 28.3864C74.2698 27.739 75.072 27.0915 75.8742 26.444C75.9435 26.3651 76.0657 26.4832 75.9785 26.5519C75.8228 26.6841 75.6577 26.8189 75.4833 26.9561C74.9137 27.4206 74.3441 27.885 73.7745 28.3495C74.8045 28.2143 75.8395 28.0979 76.8796 28.0003C78.3339 27.8721 79.7899 27.7687 81.2474 27.6899C82.698 27.6231 84.1469 27.587 85.5938 27.5815C85.6962 27.5691 85.6954 27.7353 85.6034 27.7298C85.4244 27.7375 85.2429 27.7359 85.0589 27.7248C83.617 27.7491 82.1672 27.8006 80.7097 27.8793C79.2641 27.9649 77.82 28.0752 76.3776 28.2102C75.4295 28.3134 74.484 28.4259 73.541 28.5478C73.1014 28.897 72.6584 29.252 72.212 29.6131C72.212 29.6131 72.2179 29.6165 72.2298 29.6234C73.263 29.5377 74.3012 29.4707 75.3445 29.4225C75.6503 29.25 75.9562 29.0776 76.262 28.9051C76.3568 28.8646 76.433 28.98 76.3457 29.0486C76.1425 29.1534 75.9451 29.2616 75.7537 29.3732C75.735 29.3782 75.7128 29.3892 75.6871 29.4061C76.5633 29.3725 77.4385 29.3543 78.3129 29.3514C80.3632 29.3452 82.4089 29.4156 84.45 29.5627C86.4723 29.7149 88.4875 29.9344 90.4956 30.2211C90.5951 30.2548 90.5587 30.4004 90.4489 30.3845C90.1985 30.351 89.9481 30.3175 89.6977 30.284C87.6896 29.9973 85.6675 29.7897 83.6315 29.6614C81.6073 29.5399 79.5785 29.495 77.5451 29.5269C76.831 29.5271 76.116 29.5427 75.4001 29.5736C73.9972 30.382 72.6292 31.2264 71.2959 32.1067C71.5944 32.0569 71.8929 32.0071 72.1913 31.9573C72.7251 31.8846 73.2648 31.8155 73.8105 31.7497C74.1081 31.509 74.4023 31.2743 74.6931 31.0455C74.77 30.9947 74.8743 31.1026 74.7974 31.1533C74.6229 31.2906 74.4485 31.4279 74.274 31.5652C74.2159 31.6109 74.1671 31.6542 74.1277 31.6949C74.4756 31.6419 74.8295 31.5923 75.1893 31.5462C75.2562 31.4579 75.3256 31.379 75.3975 31.3094C75.4668 31.2305 75.5712 31.3383 75.5018 31.4172C75.4812 31.4529 75.4546 31.4852 75.4221 31.514C76.9859 31.3063 78.5512 31.1232 80.1182 30.9649C80.2205 30.9525 80.2198 31.1187 80.1175 31.131C78.6306 31.288 77.1428 31.4603 75.6542 31.648C75.5296 31.6713 75.4026 31.6852 75.2731 31.6898C75.0143 32.0005 74.7556 32.3112 74.4969 32.622C74.5344 32.6119 74.5779 32.6053 74.6273 32.6021C76.322 32.4699 78.0189 32.4025 79.7181 32.3998C81.4292 32.404 83.1341 32.4602 84.8328 32.5683C84.9427 32.5841 84.942 32.7503 84.8321 32.7345C84.6293 32.7284 84.4206 32.719 84.2059 32.7061C82.5072 32.598 80.8107 32.5546 79.1166 32.5761C77.5213 32.5911 75.9317 32.665 74.3478 32.7977C73.719 33.5295 73.0819 34.2484 72.4362 34.9545C72.3043 35.1005 72.1758 35.2405 72.0508 35.3746C72.1873 35.3582 72.3177 35.3383 72.4422 35.315C72.5549 35.2848 72.6001 35.4537 72.4978 35.4661C72.2863 35.5026 72.0808 35.5426 71.8812 35.586C71.0917 36.4313 70.2904 37.2696 69.4771 38.1011C71.0107 37.7807 72.5434 37.4756 74.0752 37.1859C75.9429 36.8363 77.8157 36.5055 79.6936 36.1935C81.5714 35.8814 83.4483 35.5847 85.3243 35.3033C85.4266 35.291 85.4822 35.4421 85.3695 35.4723C85.1342 35.4951 84.9015 35.5273 84.6712 35.5688C82.7952 35.8502 80.9277 36.1444 79.0686 36.4515C77.1839 36.7754 75.3077 37.1122 73.4399 37.4617C72.0634 37.73 70.6799 38.0102 69.2896 38.3022C68.4113 39.1914 67.5152 40.0702 66.6013 40.9388C66.3856 41.1474 66.164 41.3527 65.9364 41.5545C66.559 41.4379 67.1816 41.3214 67.8042 41.2049C69.3529 40.9408 70.8997 40.7074 72.4447 40.5046C73.2701 40.3941 74.098 40.293 74.9284 40.2012C74.9678 40.1605 75.0097 40.1292 75.0541 40.1072C75.1028 40.064 75.1742 40.1052 75.1612 40.169C75.8245 40.0919 76.4809 40.0266 77.1305 39.9733C78.7093 39.8218 80.2864 39.701 81.8615 39.6109C81.9639 39.5985 81.9631 39.7647 81.843 39.7667C81.6571 39.7864 81.4687 39.7966 81.2778 39.7974C79.7146 39.8944 78.1495 40.0221 76.5825 40.1805C76.0437 40.2343 75.5108 40.2916 74.9839 40.3523C74.8232 40.4658 74.6719 40.5767 74.53 40.6852C73.9059 41.134 73.2843 41.5923 72.6653 42.0599C73.3524 41.9965 74.0421 41.9425 74.7342 41.8979C76.596 41.751 78.4534 41.6255 80.3064 41.5213C82.1544 41.3983 84.0134 41.2975 85.8834 41.2189C85.9857 41.2066 85.9849 41.3727 85.8751 41.3569C85.6467 41.3678 85.4242 41.3822 85.2077 41.4C83.3427 41.4973 81.4803 41.6041 79.6204 41.7202C77.7605 41.8363 75.9031 41.9619 74.0482 42.0968C73.5163 42.1387 72.9749 42.1832 72.4242 42.2301C71.6633 42.8062 70.8988 43.3882 70.131 43.9762C70.8099 43.8446 71.4982 43.7104 72.1958 43.5738C72.2803 43.5512 72.3359 43.7022 72.2233 43.7324C71.4386 43.8823 70.6446 44.0347 69.8412 44.1897C69.7574 44.2523 69.6736 44.315 69.5898 44.3777C68.9176 44.9099 68.2489 45.4361 67.5836 45.9563C68.4365 45.7982 69.2859 45.6461 70.1319 45.4998C71.7369 45.2207 73.3494 44.9696 74.9695 44.7468C76.5589 44.5221 78.1534 44.3161 79.7528 44.129C79.873 44.127 79.8544 44.2828 79.7521 44.2951C79.5474 44.3198 79.3463 44.3385 79.1485 44.3513C77.5422 44.5503 75.9349 44.7647 74.3267 44.9945C72.7304 45.2311 71.1298 45.489 69.5248 45.7681C68.7846 45.8961 68.0468 46.0334 67.3116 46.1801C66.53 46.7919 65.751 47.413 64.9744 48.0436C66.3734 47.7089 67.7706 47.405 69.1659 47.1317C69.2786 47.1015 69.306 47.2601 69.2037 47.2724C68.0198 47.5092 66.841 47.7647 65.6672 48.039C65.3362 48.1176 65.0146 48.1937 64.7024 48.2673C63.5957 49.1674 62.501 50.0743 61.4181 50.9881C62.0695 50.9041 62.7303 50.8175 63.4005 50.7285C64.294 50.6098 65.1995 50.4979 66.1169 50.3929C67.339 49.2105 68.5646 48.0221 69.7936 46.8277C69.863 46.7488 69.9852 46.8669 69.898 46.9355C68.7408 48.0603 67.5837 49.1851 66.4266 50.3099C66.4129 50.3337 66.3932 50.3541 66.3675 50.371C66.8638 50.3085 67.3566 50.2519 67.8459 50.2012C69.3209 50.0373 70.8009 49.8923 72.2859 49.7659C73.7709 49.6396 75.2609 49.5321 76.756 49.4433C76.8583 49.4309 76.8576 49.5971 76.7553 49.6094L76.1901 49.6402C74.707 49.7358 73.2288 49.8502 71.7557 49.9834C70.2707 50.1098 68.7907 50.2549 67.3158 50.4187C66.9441 50.458 66.5689 50.5032 66.1903 50.5543C65.367 51.3483 64.5403 52.1482 63.7101 52.954C65.686 52.4447 67.6524 51.9379 69.6095 51.4336C69.7118 51.4213 69.7495 51.5621 69.6369 51.5922C68.4988 51.8871 67.3514 52.1845 66.1945 52.4844C65.2885 52.7071 64.3851 52.9391 63.4841 53.1805C62.8115 53.8235 62.1448 54.4698 61.484 55.1196C61.9088 55.0159 62.3337 54.9121 62.7585 54.8083C64.0637 54.4988 65.3613 54.1612 66.6514 53.7954C66.8858 53.5817 67.1237 53.362 67.365 53.1364C67.4344 53.0575 67.5566 53.1756 67.4694 53.2443C67.3119 53.4072 67.1484 53.5667 66.979 53.7227C67.9431 53.4543 68.9013 53.1825 69.8535 52.9072C69.9483 52.8667 69.9935 53.0357 69.8809 53.0658C68.8348 53.3663 67.7862 53.6573 66.7351 53.9389C65.8537 54.7786 64.9756 55.6124 64.1011 56.4402C63.5722 56.944 63.0468 57.4419 62.5248 57.9338C64.7986 57.4855 67.0642 56.9689 69.3216 56.3842C69.4342 56.354 69.4616 56.5126 69.3772 56.5353C68.0889 56.8704 66.805 57.1842 65.5255 57.4768C64.4524 57.714 63.3803 57.9359 62.3091 58.1425C62.1465 58.2866 61.9934 58.4282 61.8496 58.5674C61.8802 58.5692 61.9144 58.5651 61.9519 58.555C64.9247 58.0502 67.901 57.5393 70.8808 57.0226C70.9652 56.9999 71.0105 57.1689 70.9082 57.1812C69.235 57.4686 67.5558 57.7525 65.8707 58.0331C64.4584 58.2807 63.0462 58.5284 61.6339 58.776C60.7593 59.6038 59.8882 60.4257 59.0204 61.2416C60.3151 61.0054 61.6106 60.7538 62.9071 60.4868C65.4455 59.9374 67.9579 59.3095 70.4442 58.6031C70.5465 58.5907 70.5843 58.7315 70.4895 58.772C69.0749 59.1611 67.6612 59.5349 66.2485 59.8933C65.9243 59.96 65.5968 60.0327 65.2658 60.1113C65.3193 60.1422 65.342 60.2267 65.2932 60.2699C65.1325 60.3834 64.9684 60.5028 64.8008 60.6282C63.5064 61.5786 62.2264 62.5452 60.9609 63.528C60.9352 63.545 60.9061 63.5678 60.8736 63.5967C63.6382 63.1778 66.4061 62.753 69.1776 62.3222C69.2799 62.3099 69.3176 62.4506 69.2331 62.4733C67.6487 62.7167 66.0703 62.9637 64.4978 63.214C63.2 63.4008 61.9047 63.597 60.6119 63.8026C59.7328 64.5008 58.8528 65.2144 57.9718 65.9434C58.5912 65.7774 59.2191 65.6242 59.8554 65.4839C59.9502 65.4434 59.9955 65.6124 59.8931 65.6247C59.1561 65.8021 58.4156 65.9854 57.6717 66.1747C57.5229 66.295 57.38 66.4188 57.2431 66.546C56.3947 67.2461 55.5547 67.959 54.7231 68.6847C55.8155 68.3317 56.9103 67.9881 58.0077 67.6538C60.7811 66.7799 63.5544 65.906 66.3278 65.0321C66.4301 65.0198 66.4678 65.1606 66.3731 65.201C64.8234 65.6867 63.2678 66.1689 61.7062 66.6477C61.1857 66.8073 60.6617 66.9728 60.1343 67.1443C60.1982 67.1574 60.2311 67.224 60.1824 67.2672C60.0267 67.3995 59.8744 67.5257 59.7256 67.6461C58.4701 68.6665 57.2325 69.6972 56.0127 70.7382C55.3199 71.3061 54.639 71.8808 53.9701 72.4624C54.4086 72.3348 54.8472 72.2073 55.2858 72.0797C56.2074 71.8026 57.1204 71.5126 58.0251 71.2099C58.559 70.7248 59.0988 70.2432 59.6446 69.765C59.7037 69.704 59.8259 69.8221 59.749 69.8729C59.6052 70.012 59.4555 70.1477 59.2998 70.2799C59.0003 70.5513 58.7008 70.8226 58.4014 71.094C59.1046 70.8653 59.8052 70.6273 60.5034 70.3799C60.5982 70.3394 60.6256 70.498 60.5411 70.5206C59.7354 70.817 58.9246 71.0946 58.1088 71.3534C57.6656 71.7639 57.2258 72.1684 56.7894 72.567C58.3835 72.0594 59.981 71.5458 61.5819 71.0263C61.9057 70.6579 62.2294 70.2895 62.5532 69.9211C62.6226 69.8422 62.7269 69.9501 62.6575 70.029C62.5119 70.1988 62.3628 70.3745 62.2103 70.5562C62.1041 70.6852 61.9919 70.8109 61.8738 70.933C62.3192 70.7936 62.7647 70.6541 63.2101 70.5146C63.3227 70.4845 63.3604 70.6252 63.2657 70.6657C62.7383 70.8372 62.2109 71.0087 61.6835 71.1802C60.6266 72.3787 59.5578 73.5704 58.4771 74.7552C58.0096 75.2627 57.5455 75.7642 57.0848 76.2598C57.5728 76.1291 58.0668 76.0017 58.5667 75.8778C58.6793 75.8477 58.7067 76.0063 58.6044 76.0186C58.0226 76.1745 57.4441 76.3245 56.8691 76.4685C56.1259 77.2611 55.3768 78.0503 54.6217 78.836C54.6029 78.841 54.5901 78.8495 54.5833 78.8614C54.6771 78.8362 54.765 78.8076 54.8469 78.7756C56.4886 78.2955 58.1397 77.8129 59.8001 77.3277C59.872 77.2582 59.9474 77.1827 60.0261 77.1012C60.1133 77.0326 60.2177 77.1404 60.1483 77.2193C60.7814 77.0296 61.4146 76.8398 62.0477 76.6501C62.15 76.6377 62.1878 76.7785 62.093 76.819C61.3541 77.027 60.6118 77.241 59.866 77.461C59.7804 77.5543 59.6888 77.6442 59.5913 77.7307C58.9786 78.2972 58.3694 78.8578 57.7636 79.4124C57.9344 79.3365 58.1145 79.258 58.304 79.177C58.3885 79.1544 58.4825 79.2801 58.3878 79.3206C58.0531 79.4606 57.7278 79.598 57.4119 79.7329C56.6761 80.4029 55.9496 81.0703 55.2326 81.7352C54.8287 82.1049 54.4214 82.4806 54.0107 82.8622C56.1546 82.1168 58.3011 81.3807 60.45 80.654C60.5345 80.6314 60.5722 80.7722 60.4774 80.8126C59.1512 81.2686 57.8189 81.7211 56.4808 82.1702C55.5624 82.4968 54.6415 82.8139 53.7181 83.1217C53.0473 83.734 52.373 84.3522 51.6953 84.9763C52.6156 84.6191 53.5264 84.2644 54.4278 83.9122C54.5226 83.8718 54.5679 84.0407 54.4731 84.0812C53.541 84.4315 52.6148 84.7853 51.6946 85.1425C51.5939 85.1796 51.4897 85.2226 51.3821 85.2715C51.2059 85.4394 51.0271 85.598 50.8457 85.7472C49.386 87.0939 47.9262 88.4406 46.4664 89.7873C46.4339 89.8161 46.398 89.8509 46.3586 89.8917C47.8634 89.5387 49.3565 89.1236 50.8379 88.6462C51.2271 88.5218 51.6137 88.388 51.9978 88.2448C52.4978 87.7085 53.0013 87.1662 53.5082 86.618C54.6058 85.4588 55.7213 84.31 56.8547 83.1715C56.924 83.0925 57.0284 83.2003 56.959 83.2793C56.8271 83.4253 56.6927 83.5619 56.5558 83.6891C55.4344 84.8345 54.3214 85.9927 53.2169 87.1638C52.9206 87.4846 52.621 87.8113 52.3178 88.144C53.9412 87.5581 55.5326 86.8903 57.092 86.1406C57.197 86.0822 57.2807 86.2258 57.186 86.2662C56.0382 86.8252 54.8779 87.3373 53.7049 87.8025C53.1638 87.9978 52.6227 88.1931 52.0815 88.3884C51.5883 88.9128 51.0977 89.4466 50.6095 89.9898C51.8832 89.4876 53.1324 88.9316 54.3571 88.3218C54.4518 88.2813 54.5355 88.4249 54.4408 88.4654C53.4006 88.9754 52.3503 89.4479 51.29 89.8829C50.9929 90.0128 50.6898 90.1393 50.3808 90.2624C50.2489 90.4083 50.117 90.5543 49.9851 90.7003C49.3857 91.3538 48.8017 92.0082 48.2329 92.6635C48.5795 92.5304 48.926 92.3973 49.2726 92.2642C51.4701 91.3435 53.6272 90.3279 55.7438 89.2176C55.8207 89.1669 55.9044 89.3104 55.8097 89.3509C54.6326 89.9881 53.4301 90.587 52.2022 91.1473C50.8223 91.7786 49.4264 92.3689 48.0145 92.9182C47.6051 93.38 47.2017 93.8451 46.8042 94.3137C46.6123 94.5362 46.4204 94.7586 46.2286 94.981C46.9794 94.7798 47.7301 94.5786 48.4809 94.3775C49.9587 93.9614 51.4246 93.5384 52.8786 93.1086C54.3513 92.6737 55.819 92.2201 57.2817 91.7477C58.7257 91.2803 60.1764 90.8011 61.6341 90.3099C61.7289 90.2694 61.7563 90.428 61.6615 90.4685C61.4857 90.5257 61.3005 90.5854 61.106 90.6476C59.6671 91.1337 58.2257 91.6105 56.7817 92.0778C55.3259 92.5383 53.8616 92.986 52.3889 93.4209C50.923 93.8438 49.4512 94.2633 47.9734 94.6794C47.3352 94.8504 46.6971 95.0214 46.0589 95.1924C45.2845 96.0939 44.5221 97.0023 43.7715 97.9176C45.2401 97.6549 46.7046 97.358 48.1649 97.0271C48.7449 96.9018 49.3224 96.7672 49.8974 96.6232C51.0545 95.4984 52.1879 94.3599 53.2974 93.2076C53.3668 93.1286 53.4889 93.2468 53.4196 93.3257C52.4163 94.349 51.4105 95.3628 50.4022 96.3673C50.3372 96.4249 50.2722 96.4826 50.2071 96.5402C51.7939 96.1553 53.379 95.7457 54.9625 95.3113C55.0573 95.2708 55.0847 95.4295 55.0002 95.4521C53.7289 95.8128 52.4526 96.1548 51.1712 96.4781C50.7839 96.5718 50.3872 96.668 49.9812 96.7667C49.7261 97.0161 49.4711 97.2655 49.216 97.5149C49.2723 97.4998 49.3227 97.4813 49.3671 97.4594C51.2015 96.9477 53.0409 96.4549 54.8854 95.9807C54.998 95.9506 55.0254 96.1092 54.9409 96.1318C53.8967 96.4016 52.855 96.6807 51.8158 96.9692C50.8654 97.2138 49.9235 97.4712 48.99 97.7415C47.8792 98.8136 46.7539 99.8695 45.6142 100.909C45.9264 100.836 46.2386 100.762 46.5508 100.688C47.6596 100.472 48.7809 100.302 49.9148 100.179C50.3004 99.7038 50.686 99.2283 51.0716 98.7529C51.141 98.6739 51.2453 98.7818 51.1759 98.8607C50.8297 99.2955 50.4835 99.7302 50.1373 100.165C50.5278 100.121 50.9302 100.083 51.3444 100.053C51.4468 100.04 51.446 100.207 51.3437 100.219C50.8869 100.241 50.435 100.281 49.9882 100.341C49.6901 100.692 49.3826 101.046 49.0658 101.403C47.7945 102.89 46.4682 104.322 45.0867 105.698C45.0404 105.75 44.9917 105.794 44.9404 105.827C45.2238 105.721 45.5106 105.609 45.8008 105.491C45.8956 105.451 45.9793 105.594 45.8846 105.635C45.4748 105.795 45.0651 105.955 44.6553 106.115C43.8045 106.957 42.9368 107.772 42.0522 108.563C42.2586 108.507 42.4651 108.452 42.6716 108.397C44.1494 107.981 45.6272 107.565 47.1049 107.148C48.4682 105.667 49.8373 104.188 51.2125 102.713C52.6338 101.186 54.0552 99.6584 55.4766 98.1308C55.546 98.0519 55.6503 98.1597 55.5809 98.2386C54.7846 99.0958 53.9883 99.9529 53.1919 100.81C51.7637 102.349 50.3389 103.883 48.9175 105.411C48.4106 105.959 47.9037 106.507 47.3968 107.055C47.8729 106.918 48.3396 106.782 48.797 106.65C48.9096 106.62 48.937 106.778 48.8525 106.801C48.3013 106.959 47.7501 107.116 47.199 107.274C46.3445 108.177 45.496 109.083 44.6534 109.993C44.584 110.072 44.4797 109.964 44.5491 109.885C45.3385 109.04 46.1186 108.197 46.8893 107.357C45.1913 107.852 43.4908 108.338 41.7877 108.815C41.4489 109.127 41.1076 109.429 40.7637 109.723C40.6868 109.774 40.5824 109.666 40.6415 109.605C40.9135 109.381 41.1795 109.154 41.4396 108.923C41.2894 108.963 41.1393 109.003 40.9891 109.044C40.9047 109.066 40.8491 108.915 40.9617 108.885C41.2057 108.82 41.4532 108.748 41.704 108.671C42.1848 108.251 42.6537 107.823 43.1107 107.389C43.5026 107.012 43.8946 106.636 44.2866 106.259C44.2422 106.281 44.1977 106.303 44.1533 106.325C42.0842 107.106 39.985 107.774 37.8452 108.347C37.7429 108.359 37.7052 108.219 37.8 108.178C38.3937 108.029 38.9884 107.865 39.584 107.685C41.2701 107.183 42.9292 106.618 44.5613 105.989C45.4583 105.095 46.3375 104.191 47.1989 103.276C46.5044 103.462 45.8159 103.651 45.1333 103.844C43.7374 104.229 42.3382 104.619 40.9355 105.015C40.3059 105.555 39.6738 106.087 39.0392 106.609C38.9698 106.688 38.8476 106.57 38.9348 106.501C39.4857 106.042 40.0365 105.582 40.5873 105.123C39.6232 105.391 38.6591 105.66 37.6949 105.928C37.6002 105.969 37.5549 105.8 37.6572 105.787C38.3586 105.589 39.0634 105.385 39.7716 105.175C40.1401 105.087 40.5061 104.989 40.8696 104.881C41.311 104.501 41.7524 104.122 42.1938 103.742C43.1554 102.901 44.105 102.053 45.0428 101.198C44.6743 101.287 44.3083 101.385 43.9448 101.492C42.4038 101.935 40.893 102.491 39.4227 103.142C39.328 103.182 39.2442 103.038 39.339 102.998C40.1672 102.635 41.0089 102.304 41.8641 102.005C42.9908 101.592 44.1351 101.245 45.2969 100.964C46.1559 100.191 47.0099 99.3986 47.8589 98.5877C48.1258 98.3452 48.3902 98.0933 48.6522 97.832C47.857 98.0551 47.0677 98.2817 46.2844 98.5117C44.9618 98.9063 43.6452 99.3044 42.3345 99.7059C41.7895 100.375 41.2505 101.047 40.7175 101.723C40.6481 101.802 40.5438 101.694 40.6132 101.616C40.7332 101.463 40.8531 101.31 40.9731 101.157C41.3399 100.687 41.6999 100.228 42.0529 99.7813C41.6331 99.9038 41.2099 100.032 40.7832 100.167C40.6988 100.189 40.661 100.049 40.7558 100.008C41.2576 99.8536 41.7499 99.7015 42.2329 99.552C42.6116 99.0884 42.9903 98.6248 43.3691 98.1613C41.3649 98.5273 39.3575 98.8439 37.3469 99.111C37.2446 99.1233 37.2351 98.975 37.3374 98.9627C38.659 98.7896 39.9696 98.5943 41.2692 98.3769C42.0283 98.2439 42.7813 98.1075 43.5284 97.9677C43.6809 97.786 43.8369 97.5984 43.9962 97.4048C44.5874 96.6831 45.1811 95.9708 45.7773 95.2678C45.0334 95.4571 44.2895 95.6464 43.5456 95.8357C42.0696 96.2211 40.5827 96.5843 39.0848 96.9253C39.0004 96.9479 38.9448 96.7969 39.0574 96.7667C39.2383 96.7283 39.4225 96.6839 39.6102 96.6337C41.0962 96.2858 42.5737 95.9251 44.0428 95.5516C44.6929 95.3874 45.337 95.2199 45.9752 95.0489C46.3401 94.6091 46.7111 94.1727 47.0879 93.7398C47.2867 93.5055 47.4914 93.2746 47.702 93.0472C47.0089 93.3134 46.3167 93.5642 45.6254 93.7998C43.8843 94.397 42.1351 94.9261 40.3776 95.387C39.4792 96.201 38.5868 97.0185 37.7003 97.8395C37.6412 97.9006 37.519 97.7824 37.5959 97.7316C37.7791 97.5518 37.9648 97.3813 38.153 97.2203C38.7794 96.63 39.4083 96.049 40.0397 95.4775C39.608 95.5932 39.1738 95.6995 38.7371 95.7964C38.6348 95.8087 38.597 95.6679 38.7097 95.6377C39.2283 95.5088 39.7564 95.3774 40.2939 95.2434C41.0366 94.5616 41.7758 93.8857 42.5117 93.2158C42.7411 92.9833 42.979 92.7637 43.2253 92.5569C42.0071 92.8531 40.7882 93.1093 39.5687 93.3254C39.4842 93.3481 39.4287 93.197 39.5413 93.1668C40.6551 92.9689 41.7741 92.7345 42.8985 92.4634C43.0862 92.4131 43.2704 92.3687 43.4513 92.3303C44.2333 91.6078 45.0214 90.8887 45.8154 90.173C44.0822 90.5368 42.3383 90.823 40.5836 91.0317C40.4813 91.044 40.482 90.8778 40.5843 90.8655C41.8428 90.7194 43.0946 90.5299 44.3397 90.2968C44.906 90.1954 45.4732 90.0786 46.0414 89.9465C46.3271 89.6989 46.6103 89.442 46.891 89.1757C48.2463 87.9273 49.6111 86.6765 50.9852 85.4231C49.5871 85.9486 48.1914 86.4835 46.7983 87.0278C46.351 87.198 45.9003 87.3741 45.4461 87.5561C44.4127 88.4667 43.3673 89.3705 42.3101 90.2673C42.2228 90.336 42.1006 90.2178 42.1879 90.1492C42.3692 90 42.5505 89.8508 42.7318 89.7017C43.4915 89.0455 44.2511 88.3893 45.0107 87.7331C43.971 88.1324 42.9313 88.5317 41.8916 88.931C41.8072 88.9536 41.7516 88.8025 41.8464 88.7621C42.7785 88.4117 43.7046 88.0579 44.6248 87.7007C44.8707 87.6047 45.1131 87.5146 45.3521 87.4304C45.8791 86.9573 46.4096 86.4782 46.9435 85.9931C47.2755 85.6929 47.598 85.3953 47.9112 85.1001C46.0319 85.7445 44.1526 86.3889 42.2733 87.0332C42.171 87.0456 42.1333 86.9048 42.2281 86.8643C43.5662 86.4152 44.8985 85.9627 46.2247 85.5067C46.8904 85.2881 47.5535 85.0602 48.2141 84.8228C48.9894 84.1121 49.7561 83.3887 50.5144 82.6524C49.8451 82.9323 49.1723 83.2182 48.4961 83.51C46.3924 84.4056 44.2828 85.2978 42.1672 86.1866C42.0724 86.2271 42.0065 86.0938 42.1013 86.0534C43.2829 85.5456 44.4705 85.0413 45.664 84.5405C47.3887 83.8068 49.1192 83.0765 50.8557 82.3497C50.9089 82.2852 50.9679 82.2241 51.033 82.1664C51.745 81.4827 52.4451 80.7922 53.1333 80.0948C51.3936 80.7722 49.6674 81.4812 47.9547 82.2217C46.7475 82.7464 45.5521 83.2779 44.3686 83.8163C43.489 84.6254 42.6069 85.425 41.7222 86.2153C41.6528 86.2942 41.5307 86.1761 41.6179 86.1074C41.7548 85.9802 41.9011 85.8505 42.0568 85.7183C42.6626 85.1637 43.2684 84.609 43.8741 84.0544C43.4882 84.2283 43.0988 84.408 42.706 84.5938C42.6291 84.6445 42.5453 84.501 42.6401 84.4605C43.1849 84.2039 43.7297 83.9473 44.2746 83.6906C44.7041 83.304 45.137 82.9114 45.5734 82.5128C46.0285 82.1092 46.4777 81.7022 46.921 81.2917C45.8492 81.609 44.7681 81.9289 43.6776 82.2513C43.5932 82.2739 43.5376 82.1228 43.6324 82.0823C44.8167 81.7348 46.007 81.3907 47.2032 81.0501C47.8228 80.4717 48.4448 79.9026 49.0694 79.343C49.5058 78.9444 49.9387 78.5518 50.3682 78.1652C50.3119 78.1802 50.2556 78.1953 50.1993 78.2104C48.8923 78.5506 47.5853 78.8907 46.2782 79.2309C45.8881 79.5768 45.5039 79.9262 45.1257 80.279C44.2786 81.0592 43.4315 81.8394 42.5844 82.6196C40.9093 87.5546 39.1465 92.4629 37.296 97.3443C37.0246 98.0205 36.7607 98.7249 36.4892 99.4012V99.4012ZM85.9753 11.3804C85.6924 11.3757 85.4121 11.3804 85.1342 11.3945C86.4057 11.7479 87.6717 12.1932 88.9069 12.6921C90.9178 13.4961 92.8538 14.4711 94.7382 15.5353C96.1662 16.3597 97.5838 17.202 98.9012 18.1767C98.0144 16.9508 96.9738 15.8264 95.7945 14.86C93.0384 12.6261 89.5108 11.3987 85.9753 11.3804V11.3804ZM76.9024 10.2356C78.9527 10.2294 81.0071 10.4635 83.0044 10.8789C85.4401 10.4526 87.9016 10.5172 90.3452 11.1902C91.4533 11.4968 92.4996 11.9105 93.4662 12.421C90.828 10.6836 87.7907 9.59637 84.5938 9.32138C82.4804 9.14836 80.3195 9.30491 78.2566 9.82747C77.7943 9.94131 77.3429 10.0773 76.9024 10.2356V10.2356ZM72.3186 11.9919C72.6707 11.7668 73.0346 11.5486 73.4105 11.3372C72.4485 11.5195 71.5166 11.8145 70.6225 12.2502C67.5685 13.7475 65.0979 16.2955 63.1325 19.0401C61.5814 21.1908 60.344 23.4989 59.3133 25.9025C62.7249 20.4468 66.9576 15.4653 72.3186 11.9919V11.9919ZM58.2117 28.7173C57.6008 30.4351 57.0893 32.1866 56.5958 33.9483C57.6655 31.9718 58.8066 30.0366 60.0191 28.1425C60.8044 26.9061 61.6328 25.7185 62.5073 24.5337C62.3809 24.5876 62.2571 24.651 62.1358 24.7237C62.041 24.7642 61.9573 24.6207 62.052 24.5802C62.1921 24.5024 62.3382 24.4281 62.4902 24.3572C62.5602 24.3183 62.6362 24.2828 62.7182 24.2508C64.2562 22.1639 65.9522 20.2158 67.8314 18.4449C67.5105 18.561 67.1895 18.6772 66.8686 18.7934C66.7738 18.8339 66.7464 18.6752 66.8309 18.6526C67.2663 18.4756 67.7007 18.3139 68.1343 18.1676C68.2781 18.0285 68.4184 17.8953 68.5553 17.7681C70.1749 16.3232 71.9523 15.0171 73.8437 13.9672C74.779 13.46 75.7322 12.9632 76.7307 12.6353C77.6832 12.3047 78.6809 12.1429 79.6437 11.7944C80.1098 11.6193 80.5808 11.4629 81.0569 11.3252C79.2532 11.0692 77.4309 10.9691 75.6051 11.0811C75.3341 11.0833 75.0622 11.1008 74.7894 11.1337C74.0285 11.5036 73.2723 11.9476 72.5519 12.4122C70.7264 13.5954 69.0561 14.9633 67.4976 16.4672C63.7721 20.0757 60.7523 24.2344 58.2117 28.7173V28.7173ZM73.809 25.7753C73.2345 25.8085 72.6625 25.8511 72.093 25.9031C70.5467 26.0258 69.001 26.1885 67.456 26.3912C66.5993 27.0231 65.7461 27.6491 64.8963 28.269C63.5319 29.2583 62.1589 30.2347 60.7776 31.1983C60.6903 31.2669 60.6066 31.1234 60.6939 31.0548C60.8665 30.9482 61.0366 30.8322 61.2042 30.7068C62.5736 29.7363 63.9371 28.7624 65.2947 27.7851C65.9069 27.3294 66.5156 26.8796 67.1209 26.4357C67.0646 26.4508 67.0023 26.4625 66.9341 26.4707C66.3697 26.5415 65.7984 26.6241 65.2202 26.7187C64.667 27.3196 64.1258 27.9273 63.5964 28.5419C63.527 28.6208 63.4048 28.5027 63.4742 28.4238C63.5992 28.2897 63.7217 28.1462 63.8417 27.9934C64.2236 27.5792 64.6021 27.171 64.9771 26.7688C63.9334 26.9277 62.9006 27.1089 61.8788 27.3123C61.7765 27.3246 61.7209 27.1735 61.8233 27.1612C62.0416 27.1127 62.2565 27.0702 62.468 27.0337C63.3584 26.8655 64.2514 26.7067 65.1468 26.5573C65.4499 26.2246 65.759 25.8954 66.0741 25.5696C65.5197 25.6779 64.9678 25.7956 64.4184 25.9226C64.3237 25.9631 64.2784 25.7942 64.3807 25.7819C64.5497 25.7366 64.7245 25.6948 64.9054 25.6564C65.3609 25.5544 65.8129 25.4585 66.2616 25.3684C66.4722 25.141 66.6828 24.9136 66.8935 24.6861C67.8986 23.6322 68.9207 22.604 69.9596 21.6013C69.7344 21.6617 69.5092 21.722 69.2839 21.7824C68.0552 22.1519 66.8475 22.5811 65.6608 23.0701C65.1316 23.2722 64.6133 23.4966 64.106 23.7431C61.6483 26.846 59.5701 30.2394 57.6526 33.7255C56.9774 34.9223 56.3261 36.1329 55.6986 37.3572C55.2221 39.2954 54.7457 41.2336 54.2617 43.1437C52.7579 49.0186 51.163 54.8726 49.4771 60.7057C50.6591 60.4996 51.841 60.2936 53.023 60.0875C54.2732 59.8732 55.5328 59.6564 56.8018 59.4371C56.9456 59.298 57.0894 59.1589 57.2332 59.0198C55.3879 59.303 53.5359 59.5427 51.6773 59.7389C51.4754 59.9238 51.27 60.1146 51.0612 60.3114C50.9919 60.3903 50.8978 60.2647 50.9569 60.2036C51.1401 60.0237 51.3232 59.8439 51.5064 59.664C52.5435 58.6921 53.5866 57.7236 54.6357 56.7585C53.6207 56.95 52.6058 57.1415 51.5909 57.3329C51.4886 57.3453 51.4433 57.1763 51.5456 57.164C52.6526 56.9781 53.7604 56.7768 54.8692 56.5601C55.2474 56.2073 55.6316 55.8579 56.0217 55.512C56.2305 55.3152 56.4487 55.116 56.6762 54.9142C55.7565 55.1606 54.8343 55.3976 53.9095 55.6253C53.8251 55.6479 53.7695 55.4969 53.8821 55.4667C54.9007 55.2139 55.9168 54.9517 56.9304 54.6801C58.1589 53.5965 59.3959 52.5258 60.6413 51.4678C60.7201 51.3864 60.8048 51.3083 60.8955 51.2338C60.082 51.3511 59.2651 51.4745 58.4447 51.6038C56.978 51.8358 55.5137 52.0773 54.052 52.3281C53.9573 52.3686 53.912 52.1997 54.0143 52.1873C54.1951 52.149 54.3819 52.114 54.5747 52.0825C56.0364 51.8316 57.5006 51.5902 58.9673 51.3581C59.6938 51.254 60.4144 51.1464 61.129 51.0354C62.1862 50.1385 63.2554 49.2485 64.3364 48.3654C62.7053 48.7723 61.0902 49.2201 59.4911 49.709C57.4277 50.3423 55.3973 51.0423 53.3999 51.8088C53.3051 51.8493 53.2674 51.7085 53.3622 51.668C54.4907 51.2248 55.6268 50.8098 56.7704 50.4229C58.7879 49.7314 60.8256 49.115 62.8834 48.5737C63.4653 48.4178 64.0497 48.2712 64.6366 48.1341C64.8641 47.9323 65.0976 47.7339 65.3371 47.539C65.8861 47.1103 66.4291 46.6781 66.9662 46.2425C66.231 46.3892 65.4958 46.5359 64.7606 46.6826C63.1776 47.0062 61.6021 47.3579 60.0341 47.7378C58.4543 48.1108 56.8854 48.5061 55.3276 48.9235C55.3088 48.9285 55.2875 48.9242 55.2637 48.9104C55.1249 49.0683 54.9802 49.2228 54.8296 49.3738C54.7602 49.4527 54.6559 49.3449 54.7252 49.2659C54.8828 49.103 55.0344 48.9367 55.18 48.7669C55.8375 48.0676 56.5036 47.3812 57.1781 46.7076C56.8045 46.7775 56.4403 46.8449 56.0855 46.9098C55.9729 46.94 55.9455 46.7814 56.03 46.7587C56.4786 46.6687 56.9272 46.5787 57.3759 46.4886C57.8553 45.988 58.3501 45.4883 58.8602 44.9895C59.3909 44.455 59.931 43.918 60.4805 43.3785C59.4455 43.4949 58.4129 43.6207 57.3829 43.7558C56.5491 44.623 55.745 45.5074 54.9706 46.4089C54.9012 46.4878 54.7969 46.38 54.8663 46.3011C55.0119 46.1313 55.1575 45.9615 55.3031 45.7917C56.4919 44.4472 57.7248 43.1361 59.0019 41.8585C59.5583 41.307 60.1231 40.7685 60.6964 40.2427C59.9662 40.4081 59.2386 40.583 58.5134 40.7673C57.5999 41.525 56.684 42.2734 55.7655 43.0124C55.6782 43.081 55.5739 42.9732 55.6433 42.8942C55.8109 42.7688 55.9725 42.64 56.1282 42.5078C56.8072 41.9637 57.4803 41.4162 58.1474 40.8653C57.6969 40.986 57.2405 41.1033 56.7781 41.2171C56.6758 41.2294 56.6381 41.0887 56.7507 41.0585C56.9759 40.9981 57.2012 40.9378 57.4264 40.8774C57.7643 40.7869 58.1047 40.7058 58.4475 40.634C58.9915 40.1865 59.5355 39.739 60.0794 39.2915C60.7466 38.7406 61.4162 38.199 62.0884 37.6668C60.7081 37.9964 59.3295 38.3508 57.9524 38.7298C57.8501 38.7421 57.8124 38.6014 57.9071 38.5609C58.9582 38.2792 60.0178 38.0104 61.0858 37.7544C61.5175 37.6387 61.9458 37.529 62.3706 37.4252C62.9265 36.9846 63.4764 36.5405 64.0204 36.093C64.9526 35.3302 65.8849 34.5674 66.8171 33.8047C65.8704 33.9879 64.9193 34.1925 63.9639 34.4183C63.5766 34.512 63.1799 34.6082 62.7739 34.707C62.3856 35.0222 61.9879 35.34 61.5809 35.6603C61.504 35.7111 61.3996 35.6033 61.4587 35.5422C61.6332 35.4049 61.8042 35.2736 61.9718 35.1482C62.1137 35.0398 62.2591 34.9254 62.4079 34.805C61.2698 35.0999 60.1486 35.4205 59.0444 35.7666C58.96 35.7893 58.9044 35.6382 59.017 35.608C59.2116 35.5458 59.4155 35.4811 59.6289 35.4139C60.6443 35.1116 61.6706 34.8316 62.708 34.5737C63.1476 34.2246 63.5871 33.8755 64.0267 33.5263C62.657 33.7827 61.2923 34.0579 59.9327 34.3518C59.8201 34.3819 59.7927 34.2233 59.895 34.211C61.3485 33.8919 62.8164 33.5891 64.2987 33.3026C64.8733 32.8569 65.4454 32.4019 66.015 31.9374C66.7453 31.3595 67.485 30.7791 68.2341 30.1961C67.2911 30.318 66.3565 30.4528 65.4304 30.6004C63.44 30.9426 61.4578 31.353 59.4838 31.8317C59.389 31.8721 59.3437 31.7032 59.446 31.6909C59.69 31.6255 59.94 31.5635 60.1959 31.505C62.163 31.0383 64.1563 30.6501 66.1755 30.3404C66.9345 30.2074 67.6986 30.0932 68.4676 29.9978C68.8422 29.7063 69.2167 29.4148 69.5912 29.1233C68.9824 29.2161 68.3667 29.3207 67.7441 29.4372C66.3249 29.6968 64.9099 29.9904 63.499 30.3182C63.3864 30.3484 63.359 30.1898 63.4434 30.1671C63.6243 30.1287 63.8051 30.0903 63.9859 30.0519C65.4087 29.7311 66.8357 29.4443 68.2667 29.1916C68.7836 29.0933 69.3123 29.002 69.8529 28.9174C69.918 28.8598 69.983 28.8021 70.048 28.7445C71.3016 27.7547 72.5553 26.765 73.809 25.7753V25.7753ZM64.5426 37.0847C63.8755 37.6356 63.2108 38.1959 62.5487 38.7656C62.1192 39.1523 61.6863 39.5449 61.2499 39.9435C61.8249 39.7995 62.3871 39.6639 62.9364 39.5368C63.6735 39.3595 64.4071 39.188 65.1373 39.0226C65.5993 38.6071 66.0673 38.195 66.5412 37.7864C67.1195 37.2794 67.6978 36.7724 68.2761 36.2653C67.0291 36.5291 65.7846 36.8022 64.5426 37.0847V37.0847ZM68.5378 36.0594C69.2068 35.4778 69.8842 34.9091 70.5701 34.3531C71.1209 33.8937 71.6743 33.4437 72.2301 33.003C71.3008 33.1011 70.3672 33.2205 69.4292 33.3612C68.5231 33.9963 67.628 34.6536 66.7438 35.3331C66.0923 35.8295 65.4492 36.3388 64.8146 36.8609C65.4578 36.7087 66.1035 36.5658 66.7517 36.4324C67.3386 36.2953 67.934 36.1709 68.5378 36.0594V36.0594ZM71.7203 29.8052C71.6452 29.8253 71.5676 29.836 71.4875 29.8374C70.5038 29.9199 69.5216 30.0272 68.5411 30.1592C67.5594 30.9251 66.5871 31.6886 65.6242 32.4495C65.294 32.719 64.9673 32.9826 64.6441 33.2402C65.8705 33.0122 67.0994 32.7936 68.3309 32.5843C69.4632 31.6673 70.593 30.7409 71.7203 29.8052ZM64.3542 33.4537C63.9334 33.7978 63.5102 34.1325 63.0843 34.4578C63.5774 34.3458 64.0704 34.2338 64.5634 34.1218C65.3875 33.9312 66.2259 33.7569 67.0788 33.5987C67.3833 33.3462 67.6843 33.0995 67.9819 32.8588C68.0145 32.83 68.0435 32.8071 68.0692 32.7902C67.9634 32.8085 67.8577 32.8267 67.7519 32.845C66.6262 33.036 65.4937 33.2389 64.3542 33.4537ZM63.6398 36.5873C63.3353 36.8399 63.0309 37.0924 62.7264 37.345C63.3014 37.201 63.8788 37.0664 64.4589 36.9411C65.3586 36.2072 66.2634 35.492 67.1732 34.7956C67.811 34.3229 68.4479 33.8656 69.0838 33.4236C69.0344 33.4268 68.9909 33.4334 68.9534 33.4435C68.3445 33.5362 67.7382 33.6383 67.1343 33.7498C65.9695 34.6956 64.8047 35.6415 63.6398 36.5873V36.5873ZM62.4544 37.5688C61.529 38.3197 60.613 39.068 59.7064 39.8139C59.4088 40.0546 59.1112 40.2953 58.8135 40.5359C59.5199 40.3567 60.2229 40.1835 60.9224 40.0161C61.6001 39.392 62.2897 38.7747 62.9911 38.1643C63.3932 37.8252 63.7917 37.4921 64.1869 37.1649C63.9873 37.2083 63.7877 37.2518 63.5881 37.2952C63.2008 37.3889 62.8229 37.4801 62.4544 37.5688V37.5688ZM58.6337 42.455C58.2674 42.8147 57.9095 43.1872 57.5601 43.5725C57.7153 43.5511 57.8799 43.5271 58.0539 43.5006C58.9218 43.3988 59.7957 43.3004 60.6755 43.2055C60.8518 43.0376 61.0247 42.8756 61.1941 42.7195C60.1398 42.9517 59.0906 43.2027 58.0463 43.4725C57.9337 43.5026 57.9063 43.344 57.9908 43.3214C58.1785 43.2711 58.3661 43.2208 58.5538 43.1705C59.4974 42.9378 60.4528 42.712 61.4201 42.493C61.8189 42.1045 62.2271 41.7135 62.6447 41.3199C63.3943 40.6262 64.1498 39.9359 64.9113 39.2491C64.0378 39.4429 63.1703 39.6401 62.3088 39.8408C61.8839 39.9446 61.4497 40.0509 61.0061 40.1597C60.2103 40.906 59.4195 41.6712 58.6337 42.455V42.455ZM60.9262 43.1836C61.8248 43.0837 62.72 42.9896 63.6117 42.9016C63.8539 42.8669 64.0926 42.8381 64.3279 42.8153C64.6924 42.4863 65.0603 42.1513 65.4316 41.8104C64.4849 41.9937 63.5501 42.1838 62.6272 42.3808C62.2468 42.4626 61.8723 42.5479 61.5038 42.6366C61.3088 42.8095 61.1162 42.9919 60.9262 43.1836ZM57.4493 46.65C56.7748 47.3236 56.1088 48.0101 55.4512 48.7093C55.5945 48.681 55.7318 48.6492 55.8632 48.614C57.4399 48.1915 59.0147 47.7997 60.5877 47.4386C62.1675 47.0656 63.7584 46.7148 65.3602 46.3861C65.9827 46.2696 66.6088 46.1471 67.2382 46.0187C67.9873 45.4358 68.7364 44.8528 69.4855 44.2699C69.2177 44.3215 68.9499 44.3732 68.682 44.4248C66.5822 44.8466 64.4857 45.2625 62.3927 45.6725C61.8946 45.7657 61.4025 45.8623 60.9164 45.9624C60.7163 46.1166 60.5187 46.2802 60.3236 46.4532C60.2467 46.504 60.1245 46.3858 60.2014 46.3351C60.3246 46.2316 60.4537 46.1317 60.5888 46.0351C59.5364 46.2367 58.4898 46.4416 57.4493 46.65ZM58.492 45.5861C58.2044 45.8643 57.9228 46.146 57.6471 46.431C58.2885 46.3095 58.9333 46.182 59.5815 46.0485L60.8429 45.8011C61.8402 44.9806 62.823 44.1439 63.7915 43.291C63.8959 43.1926 64.0062 43.0976 64.1225 43.0061C63.7202 43.0435 63.3237 43.0844 62.9332 43.1286C62.2086 43.2021 61.4805 43.2815 60.749 43.3669C59.9907 44.1032 59.2383 44.8429 58.492 45.5861V45.5861ZM69.7753 44.0564C69.9053 43.9411 70.0379 43.8352 70.173 43.7386C70.8245 43.2422 71.482 42.7492 72.1455 42.2596C70.9145 42.358 69.6955 42.4634 68.4883 42.5756C67.1209 42.6905 65.7586 42.8242 64.4013 42.9767C63.3354 43.9161 62.2609 44.8427 61.178 45.7565C62.7423 45.438 64.3125 45.1228 65.8887 44.8112C67.1783 44.5561 68.4738 44.3046 69.7753 44.0564V44.0564ZM72.3687 42.0791C73.1297 41.503 73.8932 40.9363 74.6592 40.379C73.7349 40.4959 72.8107 40.6128 71.8864 40.7296C70.3277 40.9562 68.7799 41.205 67.2431 41.4759C66.7331 41.5623 66.2291 41.652 65.731 41.7453C65.3528 42.0981 64.9746 42.4509 64.5964 42.8037C66.1208 42.6367 67.6442 42.4849 69.1668 42.3486C70.2375 42.2528 71.3048 42.1629 72.3687 42.0791V42.0791ZM69.0005 38.3495C68.632 38.4382 68.2575 38.5235 67.8771 38.6053C66.9917 38.7922 66.1029 38.9851 65.2107 39.1839C64.2217 40.0726 63.2505 40.9716 62.2971 41.8808C62.0952 42.0657 61.9027 42.248 61.7195 42.4279C62.2006 42.309 62.6843 42.1995 63.1704 42.0994C63.9995 41.9276 64.8251 41.7617 65.6473 41.6017C66.7939 40.5502 67.9116 39.4661 69.0005 38.3495V38.3495ZM69.2059 38.1587C69.4097 37.9432 69.6194 37.7311 69.8351 37.5224C70.4326 36.8996 71.0277 36.2674 71.6202 35.6258C70.8356 35.7757 70.0509 35.9256 69.2663 36.0755C69.0479 36.1239 68.8236 36.1689 68.5933 36.2105C67.7824 36.9005 66.98 37.6034 66.186 38.3191C65.9397 38.5259 65.6958 38.7421 65.4545 38.9677C66.4781 38.7337 67.4949 38.5115 68.5048 38.3013C68.7419 38.2478 68.9756 38.2003 69.2059 38.1587ZM71.7975 35.4425C72.5819 34.5785 73.3578 33.7017 74.1253 32.812C74.0946 32.8102 74.064 32.8084 74.0333 32.8065C73.5321 32.8503 73.0274 32.9 72.5192 32.9557C71.7358 33.5982 70.9524 34.2406 70.1689 34.8831C69.7344 35.251 69.2964 35.6248 68.855 36.0046C69.8274 35.8044 70.8082 35.6171 71.7975 35.4425ZM74.2744 32.6363C74.5262 32.3375 74.7815 32.0327 75.0403 31.722C74.6429 31.7781 74.255 31.8318 73.8764 31.883C73.495 32.1863 73.117 32.4837 72.7424 32.7752C73.2506 32.7195 73.7612 32.6732 74.2744 32.6363ZM73.5591 31.9378C72.6962 32.0583 71.8298 32.1849 70.9601 32.3173C70.5498 32.5882 70.1421 32.8684 69.7369 33.1581C70.6373 33.0274 71.5463 32.9096 72.4636 32.8046C72.8263 32.5063 73.1914 32.2173 73.5591 31.9378V31.9378ZM71.6071 31.6913C72.7403 30.9652 73.887 30.2707 75.0471 29.6078C74.0295 29.6391 73.016 29.7044 72.0066 29.8039C71.8459 29.9174 71.6912 30.0343 71.5424 30.1546C70.5776 30.9462 69.6128 31.7378 68.6481 32.5295C69.4071 32.3965 70.1592 32.2754 70.9045 32.1663C71.1421 32.002 71.3763 31.8437 71.6071 31.6913ZM73.2443 28.567C72.847 28.6231 72.4403 28.6818 72.0241 28.743C71.3164 28.8421 70.6112 28.9506 69.9085 29.0685C69.8247 29.1312 69.7409 29.1939 69.6571 29.2566C69.3664 29.4854 69.0722 29.7201 68.7746 29.9608C69.8284 29.8394 70.8813 29.7333 71.9332 29.6425C72.3796 29.2815 72.8167 28.923 73.2443 28.567V28.567ZM70.5968 32.3694C69.8635 32.4855 69.1267 32.6074 68.3864 32.7354C68.1213 32.9472 67.8621 33.1625 67.6089 33.3812C67.532 33.432 67.461 33.4862 67.396 33.5439C68.0561 33.4173 68.7154 33.3061 69.3736 33.2101C69.7789 32.9205 70.1866 32.6403 70.5968 32.3694V32.3694ZM89.9528 67.7244C88.2589 69.7927 86.4936 71.8198 84.6926 73.8263C81.5425 77.3862 78.2881 80.8383 74.9726 84.2312C71.7931 87.5124 68.5628 90.7165 65.2893 93.872C65.178 93.9823 65.0633 94.0985 64.9452 94.2207C61.7478 97.4915 58.5073 100.714 55.1191 103.779C53.9666 104.827 52.7962 105.865 51.5826 106.854C50.8193 107.571 50.0466 108.292 49.2645 109.014C48.0117 110.195 46.7101 111.419 45.1828 112.25C43.7708 113.006 42.1228 113.387 40.5478 112.859C40.2278 112.753 39.9191 112.615 39.6216 112.443C36.1771 111.525 35.2768 107.602 35.15 104.483C35.1364 104.094 35.1322 103.703 35.1374 103.309C34.6074 105.216 34.3094 107.258 34.7915 109.226C35.2283 111.025 36.2584 112.786 37.9211 113.698C41.2466 115.523 44.9649 112.957 47.5329 110.942C54.8213 105.202 61.4968 98.7507 67.9891 92.1226C74.5713 85.3799 81.2201 78.6042 87.1633 71.2783C88.1194 70.1168 89.0493 68.9322 89.9528 67.7244V67.7244ZM49.3911 84.598C49.0207 84.7173 48.6563 84.8401 48.2979 84.9663C47.7177 85.504 47.1316 86.0382 46.5395 86.5691C46.2795 86.7997 46.0288 87.0278 45.7875 87.2534C47.0286 86.78 48.2732 86.3007 49.5212 85.8154C50.1136 85.5863 50.706 85.3571 51.2984 85.128C51.9761 84.5038 52.6572 83.8737 53.3418 83.2376C52.0155 83.6936 50.6986 84.147 49.3911 84.598ZM57.3179 79.6073C58.0487 78.9186 58.782 78.2393 59.5179 77.5693C59.023 77.712 58.534 77.8581 58.0511 78.0076C56.8104 78.3702 55.5791 78.7303 54.3573 79.0879C54.1604 79.2915 53.9669 79.4892 53.7769 79.681C54.6151 79.3558 55.4559 79.04 56.2992 78.7335C56.394 78.693 56.4214 78.8517 56.3266 78.8921C55.3826 79.2356 54.4411 79.5885 53.5021 79.9507C52.7557 80.6939 52.0034 81.4336 51.2451 82.1699C51.491 82.0739 51.7309 81.9744 51.9648 81.8715C53.7526 81.1108 55.537 80.356 57.3179 79.6073V79.6073ZM54.0373 79.1887C52.9843 79.5011 51.9314 79.8134 50.8784 80.1257C49.6753 80.4782 48.4782 80.8342 47.287 81.1936C46.6043 81.799 45.9275 82.4078 45.2567 83.0201C45.0872 83.1761 44.9213 83.3262 44.7587 83.4704C45.0371 83.3455 45.3154 83.2206 45.5938 83.0957C47.334 82.3076 49.0971 81.5485 50.883 80.8185C51.7281 80.4814 52.5698 80.1502 53.4081 79.825C53.6238 79.6164 53.8335 79.4043 54.0373 79.1887V79.1887ZM54.9824 78.2113C55.52 77.6649 56.0516 77.115 56.5773 76.5618C56.2463 76.6404 55.9119 76.725 55.574 76.8155C53.9479 77.2412 52.3253 77.6609 50.706 78.0746C50.0609 78.67 49.4097 79.2619 48.7527 79.8503C48.3557 80.2082 47.9553 80.572 47.5514 80.9417C47.5958 80.9197 47.6427 80.9072 47.6922 80.904C49.88 80.2473 52.0704 79.6001 54.2632 78.9622C54.5064 78.7059 54.7461 78.4556 54.9824 78.2113V78.2113ZM44.7689 79.4542C45.2501 79.3354 45.7253 79.2131 46.1945 79.0873C46.7678 78.5616 47.3436 78.0452 47.9219 77.5381C46.5824 77.9071 45.2522 78.2736 43.9315 78.6376C43.5255 79.8628 43.1136 81.0847 42.6957 82.3031C43.6147 81.4534 44.5337 80.6036 45.4527 79.7538C45.6153 79.6097 45.7778 79.4655 45.9404 79.3214C45.5719 79.4101 45.1999 79.5047 44.8245 79.6053C44.7119 79.6355 44.6845 79.4769 44.7689 79.4542V79.4542ZM52.67 73.3539C52.8907 73.164 53.108 72.9801 53.3218 72.8021C53.0027 72.8876 52.6836 72.9731 52.3645 73.0586C51.2571 73.3553 50.1447 73.6333 49.0272 73.8925C48.4333 74.4539 47.8385 75.0308 47.2427 75.6229C48.0842 75.3471 48.935 75.0689 49.7953 74.7881C50.4353 74.5864 51.0753 74.3847 51.7153 74.1831C52.0335 73.9067 52.3517 73.6303 52.67 73.3539ZM48.7089 77.0406C48.6508 77.0863 48.5952 77.1415 48.542 77.206C49.9072 76.8201 51.2689 76.4402 52.6272 76.0661C52.6648 76.0561 52.6929 76.0485 52.7117 76.0435C53.8445 75.0157 54.9773 73.988 56.1102 72.9602C56.117 72.9483 56.1205 72.9424 56.1205 72.9424C55.0094 73.3004 53.8889 73.661 52.759 74.0241C52.445 74.1284 52.125 74.2292 51.799 74.3266C50.7724 75.2253 49.7424 76.13 48.7089 77.0406ZM50.3941 72.3493C51.5681 71.2502 52.7591 70.1766 53.967 69.1288C53.9995 69.0999 54.0286 69.0771 54.0543 69.0601C53.829 69.1205 53.6063 69.1902 53.3861 69.2693C51.0018 70.0188 48.6116 70.7649 46.2155 71.5075C45.491 73.8341 44.7487 76.1504 43.9886 78.4563C44.9151 78.198 45.8417 77.9396 46.7683 77.6813C47.2375 77.5556 47.7102 77.4239 48.1863 77.2862C48.4721 77.0387 48.7612 76.7852 49.0538 76.5257C49.8341 75.8338 50.6237 75.1394 51.4227 74.4425C49.9412 74.92 48.4632 75.3914 46.9886 75.857C46.8705 75.9791 46.7489 76.1073 46.6239 76.2414C46.547 76.2921 46.4426 76.1843 46.512 76.1054C46.5514 76.0646 46.6002 76.0214 46.6583 75.9756L46.0568 76.1519C45.962 76.1924 45.9346 76.0338 46.019 76.0111C46.3143 75.9119 46.6096 75.8127 46.9049 75.7134C46.9237 75.7084 46.9365 75.6999 46.9433 75.688C47.5322 75.1078 48.1211 74.5275 48.7099 73.9473C48.1418 74.0794 47.5771 74.2056 47.0159 74.3258C46.9136 74.3381 46.858 74.187 46.9706 74.1568C47.6308 74.0303 48.2918 73.8883 48.9538 73.7311C49.4245 73.273 49.9046 72.8124 50.3941 72.3493V72.3493ZM46.5324 78.9968C46.9641 78.8811 47.3923 78.7714 47.8172 78.6676C48.7557 78.4162 49.6907 78.1707 50.6223 77.9311C51.24 77.3834 51.8518 76.8322 52.4576 76.2776C51.4371 76.561 50.4107 76.8411 49.3784 77.1177C49.008 77.2371 48.6386 77.3411 48.2701 77.4298C47.6849 77.9487 47.1057 78.471 46.5324 78.9968V78.9968ZM56.7854 76.325C57.318 75.7598 57.8505 75.1946 58.3831 74.6295C57.3251 74.923 56.2765 75.214 55.2373 75.5026C54.4234 75.7307 53.6094 75.9589 52.7954 76.187C52.626 76.3431 52.4566 76.4991 52.2872 76.6552C51.8389 77.0469 51.3965 77.442 50.9602 77.8406C51.7041 77.6513 52.448 77.462 53.1919 77.2727C54.3863 76.9628 55.5842 76.6468 56.7854 76.325ZM58.4964 74.4331C58.5152 74.4281 58.5305 74.429 58.5424 74.4359C58.6468 74.3375 58.7453 74.2357 58.8378 74.1304C59.701 73.185 60.5523 72.2327 61.3916 71.2735C60.7585 71.4632 60.1219 71.659 59.4819 71.8606C58.4834 72.1885 57.4884 72.5104 56.4968 72.8264C56.2623 73.0401 56.0279 73.2538 55.7935 73.4675C54.8882 74.2935 53.977 75.116 53.0599 75.9351C54.8686 75.4404 56.6808 74.9397 58.4964 74.4331V74.4331ZM57.7503 71.4797C57.694 71.4947 57.6471 71.5073 57.6095 71.5174C56.3039 71.9376 54.9966 72.3332 53.6878 72.704C53.2276 73.0888 52.7768 73.4711 52.3354 73.8509C52.2635 73.9205 52.1917 73.9901 52.1198 74.0596C53.5449 73.5973 54.976 73.1384 56.4131 72.6829C56.8494 72.2843 57.2952 71.8833 57.7503 71.4797ZM56.3472 70.2412C57.5789 69.2071 58.8132 68.1823 60.0499 67.1669C58.1674 67.7619 56.2943 68.3543 54.4306 68.9442C54.1517 69.1799 53.8788 69.419 53.6119 69.6615C52.4159 70.7162 51.2308 71.7932 50.0568 72.8924C49.783 73.1468 49.5151 73.4046 49.2532 73.6659C49.4972 73.6006 49.7437 73.5446 49.9927 73.4979C51.2109 73.2017 52.4147 72.8892 53.6041 72.5605C54.5194 71.772 55.4338 70.999 56.3472 70.2412V70.2412ZM57.3057 66.2727C55.8485 66.6531 54.4014 67.0711 52.9644 67.5265C51.5017 67.9989 50.0559 68.497 48.6271 69.0206C48.5145 69.0508 48.4767 68.91 48.5715 68.8696C49.3841 68.5613 50.2018 68.2718 51.0244 68.0011C51.3573 67.8918 51.6901 67.7825 52.0229 67.6732C52.0298 67.6613 52.0332 67.6553 52.0332 67.6553C53.091 66.6477 54.1487 65.64 55.2065 64.6324C52.8017 65.0051 50.397 65.3779 47.9923 65.7507C47.5217 67.3353 47.0391 68.913 46.5447 70.4839C46.4599 70.7681 46.3692 71.0489 46.2725 71.3263C47.4143 70.9701 48.5467 70.6164 49.6697 70.2652C51.2262 69.7676 52.7853 69.2795 54.3468 68.8007C55.3221 67.9358 56.3084 67.0932 57.3057 66.2727V66.2727ZM50.9061 62.4351C51.9905 62.3155 53.0665 62.1831 54.1341 62.0379C54.9455 61.2371 55.7663 60.4338 56.5965 59.6279C54.2137 60.0451 51.825 60.4588 49.4303 60.8691C48.9665 62.4418 48.5062 64.0086 48.0493 65.5694C49.528 65.3442 51.0007 65.1156 52.4674 64.8835C53.4548 64.7396 54.4363 64.5923 55.4118 64.4416C56.4559 63.4577 57.4905 62.4764 58.5157 61.4975C57.0847 61.7502 55.652 61.9782 54.2178 62.1814C54.1528 62.2391 54.0912 62.2908 54.0331 62.3366C53.9637 62.4155 53.8593 62.3077 53.9287 62.2287C53.9287 62.2287 53.9321 62.2228 53.939 62.2109C52.9397 62.3479 51.9319 62.4721 50.9156 62.5834C50.8133 62.5958 50.8141 62.4296 50.9061 62.4351V62.4351ZM57.588 66.0311C57.6067 66.0261 57.6196 66.0176 57.6264 66.0057C58.5074 65.2768 59.3968 64.5607 60.2947 63.8574C58.9218 64.0643 57.5455 64.2772 56.1657 64.496C55.9423 64.5257 55.719 64.5554 55.4956 64.5851C54.4447 65.5808 53.3972 66.5706 52.3532 67.5545C53.3636 67.2334 54.3825 66.9252 55.4098 66.6299C56.1367 66.4149 56.8628 66.2154 57.588 66.0311V66.0311ZM60.5564 63.6515C60.8284 63.4277 61.1029 63.2134 61.3799 63.0084C62.6454 62.0255 63.9185 61.0708 65.1992 60.1443C63.0769 60.6325 60.9454 61.0678 58.8048 61.4503C58.5891 61.6589 58.3641 61.8701 58.1296 62.0838C57.3201 62.854 56.5105 63.6241 55.7009 64.3943C57.316 64.1526 58.9345 63.905 60.5564 63.6515ZM61.3448 58.8233C59.8831 59.0742 58.412 59.3275 56.9316 59.5834C56.9128 59.5884 56.894 59.5934 56.8752 59.5985C56.0519 60.3924 55.2252 61.1923 54.395 61.9982C54.6866 61.9603 54.9817 61.9164 55.2801 61.8666C56.4296 61.6894 57.58 61.4968 58.7314 61.2889C59.5991 60.473 60.4702 59.6511 61.3448 58.8233ZM61.5605 58.6146C61.7162 58.4824 61.8659 58.3467 62.0097 58.2076C60.889 58.4174 59.7599 58.6143 58.6223 58.7984C58.2487 58.8683 57.8727 58.9289 57.4941 58.98C57.3503 59.1191 57.2065 59.2582 57.0628 59.3974C58.562 59.1365 60.0612 58.8755 61.5605 58.6146V58.6146ZM57.4104 58.8365C58.5931 57.6947 59.7759 56.553 60.9586 55.4113C60.2285 55.5768 59.5043 55.7457 58.786 55.918C57.5014 56.1918 56.2178 56.4503 54.935 56.6934C53.9116 57.6415 52.8908 58.5991 51.8724 59.566C53.1121 59.4249 54.3526 59.2685 55.5941 59.0968C56.1961 59.016 56.8015 58.9292 57.4104 58.8365V58.8365ZM62.2254 57.999C63.6219 56.6792 65.0185 55.3595 66.4151 54.0398C66.2462 54.085 66.0773 54.1303 65.9083 54.1755C64.3573 54.5811 62.8072 54.9713 61.258 55.3462C60.9123 55.6701 60.5726 55.9976 60.2388 56.3284C59.3829 57.1512 58.5365 57.9714 57.6995 58.7892C59.2156 58.5539 60.7243 58.2905 62.2254 57.999V57.999ZM63.1744 53.2635C62.1371 53.5213 61.0963 53.7851 60.052 54.0549C59.0453 54.3146 58.0327 54.5708 57.0141 54.8236C56.5196 55.268 56.0344 55.7098 55.5587 56.1491C55.4287 56.2644 55.2986 56.3797 55.1686 56.495C55.3119 56.4667 55.4551 56.4383 55.5984 56.41C57.468 56.0297 59.3267 55.6273 61.1743 55.2026C61.8351 54.5528 62.5018 53.9064 63.1744 53.2635V53.2635ZM63.4004 53.037C63.4723 52.9674 63.5348 52.9004 63.5879 52.8359C64.3719 52.0826 65.1558 51.3294 65.9397 50.5762C64.9166 50.6995 63.8994 50.8262 62.8882 50.9563C62.3168 51.039 61.7549 51.1191 61.2024 51.1968C60.8397 51.4951 60.483 51.7969 60.1323 52.1021C59.1657 52.9244 58.211 53.7535 57.2682 54.5896C57.287 54.5845 57.3117 54.5829 57.3424 54.5848C59.3558 54.0654 61.3751 53.5495 63.4004 53.037V53.037ZM69.3242 24.8043C69.331 24.7924 69.3438 24.7839 69.3626 24.7789C70.7101 23.764 72.0398 22.7389 73.3516 21.7034C73.8424 21.3204 74.3333 20.9374 74.8241 20.5544C74.2221 20.6352 73.6252 20.7348 73.0333 20.8532C72.1053 21.0314 71.1875 21.2472 70.2796 21.5005C70.1033 21.6684 69.933 21.8398 69.7686 22.0146C68.7022 23.0648 67.6561 24.1348 66.6303 25.2244C66.5978 25.2532 66.5653 25.282 66.5328 25.3108C67.3738 25.1459 68.2113 24.9868 69.0454 24.8337C69.1443 24.8274 69.2372 24.8176 69.3242 24.8043V24.8043ZM68.5585 25.1C67.8182 25.2279 67.0805 25.3653 66.3453 25.512C66.0234 25.8497 65.7074 26.1908 65.3974 26.5354C66.0626 26.4276 66.7302 26.3292 67.4004 26.2401C67.9544 25.8302 68.5025 25.4168 69.0446 24.9999C68.8826 25.0333 68.7205 25.0666 68.5585 25.1V25.1ZM74.0219 25.6126C74.0475 25.5957 74.0732 25.5788 74.0988 25.5618C74.694 25.0805 75.2858 24.605 75.8742 24.1356C74.841 24.2213 73.8035 24.3283 72.7616 24.4566C71.6327 24.5981 70.5088 24.7585 69.39 24.9375C69.2412 25.0579 69.0958 25.1723 68.9539 25.2807C68.5418 25.5822 68.1263 25.8897 67.7074 26.2032C69.3581 25.9821 71.0121 25.8105 72.6692 25.6884C73.1141 25.6597 73.565 25.6344 74.0219 25.6126V25.6126ZM76.1153 23.9653C76.7943 23.4213 77.4699 22.8832 78.1421 22.351C79.0793 21.607 80.0132 20.8689 80.9436 20.1368C80.8703 20.1263 80.7996 20.1251 80.7314 20.1333C79.4327 20.1292 78.1398 20.184 76.8525 20.2976C76.2831 20.3496 75.7127 20.4169 75.1414 20.4996C74.411 21.0775 73.6807 21.6554 72.9504 22.2333C71.8593 23.0789 70.7657 23.9151 69.6696 24.7419C70.8566 24.5546 72.0486 24.3861 73.2457 24.2363C74.2006 24.1213 75.1572 24.031 76.1153 23.9653V23.9653ZM77.3076 18.5612C77.7216 18.229 78.1355 17.8968 78.5494 17.5646C77.3949 17.7231 76.2495 17.9344 75.1133 18.1986C74.4957 18.3339 73.8832 18.488 73.2757 18.6608C73.1969 18.7423 73.1122 18.8203 73.0215 18.8949C72.1744 19.6751 71.3358 20.4681 70.5056 21.274C71.4935 21.0193 72.4856 20.7988 73.4817 20.6123C74.0105 20.521 74.5417 20.439 75.0755 20.3663C75.8195 19.7646 76.5636 19.1629 77.3076 18.5612V18.5612ZM75.8843 16.1211C74.5622 16.405 73.2468 16.7323 71.9379 17.1031C71.2178 17.3061 70.4968 17.5245 69.7748 17.7582C68.0914 19.19 66.5453 20.7962 65.1241 22.4746C64.8585 22.7972 64.5894 23.1258 64.3169 23.4603C64.8737 23.2106 65.4388 22.9736 66.0125 22.7495C67.2229 22.2743 68.4544 21.8588 69.707 21.5031C69.864 21.4509 70.027 21.4022 70.1959 21.357C71.098 20.4816 72.0085 19.619 72.9275 18.7692C71.1792 19.283 69.461 19.9093 67.7908 20.6586C67.6961 20.6991 67.6124 20.5555 67.7071 20.5151C67.8591 20.4441 68.0077 20.3792 68.1528 20.3202C69.3345 19.8125 70.5406 19.3585 71.7711 18.9584C72.2422 18.802 72.7158 18.6549 73.1919 18.5173C73.2432 18.4835 73.2851 18.4521 73.3176 18.4233C74.1647 17.6431 75.0203 16.8757 75.8843 16.1211V16.1211ZM49.9749 47.6419C51.0066 45.223 52.1011 42.8324 53.2587 40.4703C53.8143 39.3156 54.3853 38.1617 54.9716 37.0088C55.2214 36.0266 55.4771 35.0477 55.7388 34.0723C55.8722 33.594 56.0055 33.1157 56.1389 32.6374C54.9907 34.997 53.9319 37.4081 52.9471 39.8145C51.9054 42.4021 50.9171 45.0206 49.9749 47.6419ZM36.6775 96.7254C37.4811 94.6191 38.2634 92.5084 39.0244 90.3933C39.8578 88.0979 40.6734 85.7922 41.4711 83.4762C42.7939 79.5912 44.0741 75.6974 45.3118 71.795C45.2179 71.8201 45.13 71.8487 45.0481 71.8807C44.9636 71.9033 44.908 71.7523 45.0207 71.7221C45.1333 71.6919 45.2434 71.6523 45.351 71.6034C46.3087 68.5706 47.2366 65.5206 48.1348 62.4535C48.2801 61.982 48.4193 61.5071 48.5527 61.0288C48.3788 61.0553 48.2014 61.0877 48.0205 61.1261C47.9182 61.1385 47.873 60.9695 47.9753 60.9572C48.1868 60.9207 48.3983 60.8841 48.6098 60.8476C49.8146 56.6723 50.9768 52.4883 52.0964 48.2955C52.7749 45.76 53.3896 43.2114 54.0503 40.6656C53.2024 42.3814 52.3903 44.1179 51.6138 45.875C47.9755 54.0318 44.8932 62.462 42.2579 70.9837C40.3491 77.0928 38.7033 83.2824 37.5608 89.5483C37.1718 91.9257 36.8774 94.3181 36.6775 96.7254ZM102.634 23.2117C103.534 25.4449 104.125 27.7611 104.444 30.1349C104.372 27.9514 103.975 25.7946 102.984 23.8421C102.868 23.632 102.751 23.4218 102.634 23.2117ZM50.2689 90.1264C50.769 89.59 51.2665 89.0443 51.7615 88.4892C50.2713 89.0092 48.767 89.4575 47.2485 89.8343C46.8731 89.9348 46.4952 90.026 46.1148 90.1079C45.3396 90.8185 44.5643 91.5292 43.7891 92.2398C45.4528 91.8041 47.0963 91.2933 48.7197 90.7075C49.242 90.5172 49.7585 90.3235 50.2689 90.1264ZM45.5443 91.9204C44.8736 92.1202 44.2038 92.3047 43.535 92.4739C43.0592 92.9132 42.5741 93.355 42.0796 93.7993C41.597 94.2505 41.1049 94.7042 40.6036 95.1604C41.2605 94.9844 41.9149 94.799 42.5668 94.6042C44.3655 94.072 46.1501 93.4681 47.9204 92.7925C48.6211 91.9912 49.3311 91.1874 50.0505 90.381C48.5754 90.9573 47.0733 91.4705 45.5443 91.9204V91.9204ZM42.5145 99.4766C42.9599 99.3371 43.4019 99.2036 43.8405 99.076C45.5147 98.5671 47.1999 98.0803 48.896 97.6158C49.1579 97.3545 49.4198 97.0932 49.6818 96.8319C47.8955 97.2602 46.1025 97.6451 44.3029 97.9865C44.0727 98.028 43.8424 98.0696 43.6122 98.1112C43.2403 98.5629 42.8744 99.018 42.5145 99.4766V99.4766ZM44.8236 101.619C43.6395 102.681 42.4435 103.735 41.2356 104.783C43.227 104.219 45.2185 103.656 47.2099 103.092C47.2662 103.077 47.3019 103.097 47.2992 103.143C48.1417 102.234 48.9639 101.304 49.7658 100.355C49.394 100.394 49.0189 100.44 48.6403 100.491C47.5353 100.646 46.4453 100.858 45.3703 101.125C45.1941 101.293 45.0118 101.458 44.8236 101.619V101.619ZM44.5409 111.713C43.5726 112.154 42.5075 112.514 41.4412 112.589C43.6637 112.944 45.7817 111.501 47.5655 109.937C46.6012 110.618 45.604 111.232 44.5409 111.713V111.713ZM53.6344 82.9782C54.3052 82.3659 54.9794 81.7477 55.6571 81.1235C56.0935 80.7249 56.5299 80.3264 56.9662 79.9278C56.2525 80.2297 55.5328 80.5282 54.8071 80.8232C53.5179 81.3799 52.2321 81.9306 50.9498 82.4754C50.8454 82.5738 50.7444 82.6662 50.6469 82.7527C49.9673 83.4075 49.2819 84.0589 48.5905 84.7069C50.1745 84.1617 51.7551 83.6225 53.3322 83.0893C53.4329 83.0523 53.5337 83.0152 53.6344 82.9782V82.9782ZM101.035 48.1581C102.575 44.0491 103.69 39.7669 104.193 35.3925C104.22 35.154 104.246 34.9155 104.273 34.677C104.268 34.6582 104.263 34.6395 104.258 34.6207C104.287 32.7572 104.142 30.8647 103.8 29.0251C104.659 36.3992 102.537 43.9083 99.2788 50.4997C97.1969 54.7239 94.6228 58.6877 91.8551 62.4922C89.1465 66.2356 86.3054 69.8786 83.4211 73.473C80.3295 77.2888 77.1471 81.0283 73.8739 84.6916C75.5722 82.9591 77.2503 81.2069 78.9079 79.435C84.736 73.2564 90.5752 66.8938 95.3311 59.8106C97.5666 56.1035 99.5165 52.2315 101.035 48.1581V48.1581Z" fill="#E4DBE0"/>
<path fill-rule="evenodd" clip-rule="evenodd" d="M42.6861 137.226C41.9675 138.43 41.1596 139.582 40.1685 140.556C39.1773 141.531 38.0414 142.303 36.7305 142.76C35.5218 143.204 34.2199 143.357 32.929 143.326C30.0074 143.234 27.2413 142.089 24.6936 140.689C23.0309 139.777 21.4431 138.694 20.1018 137.348C19.4119 136.688 18.799 135.977 18.2554 135.187C16.7847 133.077 15.9066 130.475 16.0152 127.896C16.0726 126.478 16.4164 125.058 17.0382 123.775C17.7294 122.413 18.7598 121.247 19.8917 120.234C20.4256 119.749 20.9849 119.302 21.5696 118.894C23.893 117.261 26.6742 116.154 29.5252 116.038C30.2846 116.001 31.0385 116.055 31.7897 116.156C31.9455 116.174 32.1268 116.232 32.2648 116.24C32.4385 116.269 32.6328 116.262 32.8065 116.291C33.1718 116.359 33.5419 116.501 33.8762 116.623C35.3592 117.146 36.7982 117.786 38.1135 118.641C38.789 119.078 39.4336 119.57 40.0576 120.096C41.9097 121.547 43.3661 123.435 44.2409 125.629C44.6985 126.774 44.9666 128 45.0225 129.222C45.0852 130.639 44.8541 132.028 44.4417 133.361C44.019 134.711 43.3868 136.012 42.6861 137.226V137.226ZM22.5594 119.942C23.4233 119.393 24.3456 118.95 25.3084 118.602C27.5746 117.768 30.0967 117.439 32.4565 117.969C33.0694 118.116 33.6711 118.297 34.2615 118.511C35.4815 118.954 36.6548 119.56 37.7587 120.245C38.2839 120.572 38.8269 120.909 39.3108 121.307C39.7873 121.678 40.1867 122.099 40.5553 122.573C41.3131 123.487 41.9705 124.533 42.4131 125.621C42.8584 126.664 43.0757 127.812 43.0629 128.947C43.0217 131.327 42.0349 133.614 40.4523 135.365C38.9158 137.12 36.8321 138.297 34.5825 138.854C34.545 138.864 34.4981 138.877 34.4418 138.892C34.2494 139.225 34.0392 139.548 33.8111 139.861C34.5642 139.518 35.3114 139.172 36.0526 138.823C36.1474 138.782 36.2311 138.926 36.1363 138.966C35.2944 139.353 34.4584 139.743 33.6284 140.136C33.2409 140.642 32.8128 141.109 32.3439 141.536C32.3934 141.533 32.4393 141.536 32.4819 141.545C33.0827 141.534 33.6582 141.486 34.2185 141.381C35.4518 141.141 36.5375 140.745 37.5834 140.087C38.696 139.397 39.6562 138.476 40.4764 137.426C41.2835 136.44 42.02 135.247 42.5827 134.025C43.1042 132.874 43.527 131.524 43.6503 130.239C43.8962 127.834 43.2137 125.512 41.9317 123.487C41.5941 122.959 41.2866 122.543 40.8899 122.076C40.4931 121.609 40.0401 121.157 39.5665 120.741C38.7564 120.083 37.8386 119.529 36.887 119.075C35.6396 118.474 34.3022 117.987 32.9256 117.692C31.5668 117.408 30.1661 117.36 28.7722 117.508C28.1123 117.579 27.4393 117.714 26.7918 117.887C25.2611 118.313 23.8341 119.012 22.5594 119.942V119.942ZM21.79 121.068C22.4845 120.882 23.1865 120.724 23.896 120.595C24.2294 120.374 24.5771 120.171 24.9392 119.983C24.7909 119.993 24.6392 120.008 24.484 120.03C24.3817 120.042 24.3439 119.901 24.4566 119.871C24.7482 119.833 25.0398 119.795 25.3314 119.757C25.9224 119.448 26.5304 119.164 27.1554 118.906C27.268 118.876 27.3057 119.017 27.2109 119.058C26.7192 119.25 26.2385 119.464 25.7688 119.7C25.9171 119.691 26.0688 119.675 26.224 119.654C26.8805 119.589 27.5395 119.533 28.2009 119.486C28.5379 119.205 28.869 118.92 29.1941 118.632C29.2813 118.563 29.3856 118.671 29.3163 118.75C29.0374 118.986 28.7551 119.227 28.4694 119.475C29.8349 119.39 31.2027 119.371 32.5728 119.416C32.6929 119.414 32.6922 119.58 32.5823 119.565C31.9859 119.553 31.3919 119.552 30.8005 119.559C29.9569 119.564 29.1148 119.593 28.2743 119.648C28.0536 119.838 27.833 120.027 27.6123 120.217C27.7043 120.223 27.7997 120.222 27.8986 120.216C29.2382 120.204 30.5799 120.312 31.8982 120.502C32.008 120.518 31.9613 120.682 31.8514 120.666C31.114 120.541 30.3679 120.46 29.613 120.421C28.877 120.376 28.145 120.366 27.4172 120.39C27.2478 120.546 27.0758 120.693 26.9014 120.83C26.7457 120.963 26.5925 121.104 26.4419 121.255C26.6891 121.239 26.9422 121.227 27.2013 121.218C27.2975 121.051 27.4031 120.882 27.518 120.71C27.5695 120.621 27.7123 120.704 27.6608 120.793C27.5665 120.929 27.4747 121.074 27.3853 121.229C27.6939 121.216 27.999 121.21 28.3006 121.21C28.3281 121.162 28.3556 121.115 28.3831 121.067C28.4346 120.978 28.5774 121.06 28.5259 121.149C28.5121 121.173 28.4984 121.197 28.4846 121.221C29.2601 121.224 30.0312 121.249 30.7979 121.295C30.8899 121.301 30.8995 121.449 30.8075 121.443C30.1208 121.396 29.4358 121.373 28.7524 121.375C28.6297 121.368 28.5095 121.37 28.3919 121.381C28.1345 121.772 27.8771 122.163 27.6197 122.554C28.4121 122.583 29.2045 122.612 29.9968 122.641C32.3126 122.725 34.6325 122.843 36.9565 122.994C37.0588 122.982 37.0581 123.148 36.9661 123.143C35.6661 123.059 34.3745 122.987 33.0914 122.929C31.2256 122.835 29.3649 122.76 27.5091 122.704C27.3598 122.935 27.2046 123.163 27.0434 123.387C27.0228 123.423 27.0056 123.453 26.9919 123.477C28.2897 123.29 29.584 123.109 30.875 122.934C30.9773 122.922 31.0328 123.073 30.9305 123.085C30.1665 123.199 29.4059 123.308 28.6487 123.41C28.0468 123.491 27.4507 123.575 26.8606 123.663C26.6926 123.899 26.522 124.126 26.3489 124.343C26.6831 124.314 27.0197 124.294 27.3589 124.284C27.5942 124.261 27.8414 124.245 28.1005 124.236C28.123 124.169 28.1479 124.112 28.1754 124.065C28.2091 123.965 28.3519 124.048 28.3182 124.147C28.3045 124.171 28.2873 124.201 28.2667 124.237C29.6116 124.188 30.9519 124.216 32.2876 124.321C32.3899 124.309 32.3892 124.475 32.2972 124.469C31.3721 124.395 30.4477 124.361 29.5239 124.367C29.0808 124.365 28.6402 124.373 28.2021 124.39C27.9511 124.879 27.6907 125.372 27.4209 125.866C27.7583 125.887 28.1016 125.91 28.4508 125.937C28.6861 125.915 28.9308 125.889 29.1849 125.861C29.3154 125.635 29.44 125.406 29.5587 125.173C29.6102 125.084 29.753 125.166 29.7015 125.255C29.5847 125.458 29.4773 125.657 29.3792 125.855C29.918 125.801 30.4568 125.747 30.9956 125.693C31.0979 125.681 31.0793 125.837 30.977 125.849L29.2865 126.015L29.2659 126.051C29.7172 126.121 30.1616 126.203 30.5992 126.297C30.7091 126.313 30.6624 126.476 30.5628 126.443C30.1133 126.342 29.6535 126.259 29.1834 126.194C29.0185 126.479 28.8537 126.765 28.6888 127.05C28.849 127.048 29.0033 127.042 29.1516 127.032C29.2436 127.038 29.2531 127.186 29.1508 127.198C28.9718 127.206 28.7835 127.216 28.5857 127.229C28.517 127.348 28.4483 127.467 28.3796 127.586C28.3384 127.657 28.2947 127.719 28.2484 127.772C28.4974 127.725 28.7405 127.675 28.9777 127.622L28.988 127.604C29.0292 127.533 29.093 127.546 29.1363 127.594C29.2489 127.564 29.3581 127.54 29.4638 127.522C29.5765 127.492 29.6039 127.65 29.5194 127.673C29.3761 127.701 29.2328 127.73 29.0895 127.758C28.9865 127.936 28.8834 128.115 28.7804 128.293C28.893 128.263 28.9204 128.422 28.836 128.444C28.7796 128.459 28.7174 128.471 28.6492 128.479C28.4568 128.813 28.256 129.133 28.0467 129.44C27.9574 129.595 27.8587 129.752 27.7506 129.912C28.2523 129.758 28.7685 129.619 29.2991 129.497C29.4553 129.254 29.6089 129.002 29.7601 128.74C29.8116 128.651 29.9544 128.733 29.9029 128.822C29.8685 128.882 29.8342 128.941 29.7998 129.001C29.7929 129.013 29.7861 129.025 29.7792 129.037C29.7343 129.169 29.6834 129.299 29.6266 129.424C29.7289 129.412 29.7845 129.563 29.6822 129.576C29.6447 129.586 29.6071 129.596 29.5696 129.606C29.3525 130.147 29.1634 130.68 29.0561 131.237C29.1244 131.229 29.196 131.215 29.2711 131.195C29.3555 131.172 29.4008 131.341 29.2985 131.353C29.2115 131.366 29.1211 131.386 29.0273 131.411C29.0185 131.453 29.0123 131.505 29.0087 131.567C28.9852 131.855 28.9558 132.139 28.9205 132.42C28.9837 132.393 29.0494 132.375 29.1176 132.367C29.6305 131.616 30.14 130.871 30.6461 130.132C30.6976 130.043 30.8404 130.125 30.771 130.204C30.4536 130.671 30.1328 131.145 29.8086 131.624C29.6524 131.867 29.4937 132.1 29.3325 132.325C29.457 132.301 29.5816 132.278 29.7061 132.255C29.8084 132.243 29.8358 132.401 29.7335 132.413C29.5595 132.44 29.3821 132.472 29.2013 132.511C29.0795 132.694 28.9542 132.884 28.8255 133.079C28.8131 133.183 28.7948 133.284 28.7705 133.381C29.0282 133.291 29.2885 133.212 29.5513 133.141C29.6461 133.101 29.6838 133.242 29.589 133.282C29.3006 133.369 29.0088 133.463 28.7135 133.562C28.696 133.647 28.6761 133.723 28.6536 133.789C28.6069 133.953 28.5576 134.107 28.5059 134.251C29.1678 134.094 29.8408 133.959 30.5247 133.846C30.627 133.834 30.6544 133.992 30.5521 134.005C29.9433 134.097 29.3266 134.217 28.7022 134.365C28.6084 134.39 28.5179 134.409 28.431 134.422C28.2317 134.973 27.9685 135.512 27.6978 136.022C27.6703 136.069 27.6429 136.117 27.6154 136.165C28.2861 135.965 28.9618 135.784 29.6425 135.621C29.7923 135.279 29.9302 134.931 30.0562 134.575C30.1077 134.486 30.2533 134.522 30.2196 134.622C30.1023 134.935 29.9756 135.25 29.8396 135.569C29.8652 135.552 29.8934 135.544 29.924 135.546C30.0085 135.523 30.0641 135.674 29.9618 135.687C29.8867 135.707 29.8176 135.73 29.7544 135.757C29.7269 135.805 29.7054 135.856 29.6898 135.91C29.6261 136.048 29.5531 136.189 29.4706 136.331C30.4054 136.141 31.3434 136.001 32.2846 135.909C32.3869 135.897 32.3965 136.045 32.2942 136.058C31.7178 136.121 31.1465 136.204 30.5802 136.306C30.1829 136.362 29.7846 136.433 29.3854 136.52C29.1688 136.95 28.9436 137.368 28.71 137.772C29.5528 137.577 30.4039 137.449 31.2631 137.39C31.3767 137.138 31.4784 136.88 31.5682 136.614C31.6019 136.515 31.7474 136.551 31.7138 136.651C31.6377 136.892 31.5497 137.127 31.4499 137.355C31.5762 137.301 31.6991 137.253 31.8186 137.211C31.9134 137.17 31.9971 137.314 31.9024 137.355C31.8717 137.353 31.847 137.354 31.8282 137.359C31.939 137.36 32.0557 137.364 32.1784 137.371C32.2807 137.359 32.28 137.525 32.188 137.519C31.917 137.522 31.6579 137.531 31.4107 137.547C31.3919 137.552 31.3791 137.56 31.3722 137.572C31.1812 137.985 30.9604 138.381 30.7099 138.76C30.8019 138.766 30.888 138.768 30.9681 138.767C31.3403 138.617 31.7066 138.463 32.0669 138.306C32.2716 137.869 32.4491 137.424 32.5994 136.972C32.6228 136.89 32.7683 136.926 32.745 137.008C32.6034 137.418 32.4534 137.815 32.2948 138.2C32.5663 138.087 32.8413 137.968 33.1196 137.843C33.2144 137.803 33.2803 137.936 33.1855 137.976C32.8627 138.123 32.5306 138.273 32.189 138.424C32.1391 138.538 32.0832 138.649 32.0214 138.756C32.8728 138.724 33.712 138.59 34.5284 138.371C34.6058 138.209 34.6833 138.048 34.7607 137.886C34.7943 137.787 34.9371 137.869 34.9035 137.969C34.8535 138.083 34.7942 138.199 34.7255 138.318C35.1384 138.207 35.5464 138.078 35.9492 137.93C38.0492 137.096 39.8913 135.636 41.1038 133.742C42.306 131.866 42.8581 129.591 42.4462 127.378C42.3667 126.856 42.213 126.339 42.0106 125.865C41.7931 125.335 41.509 124.837 41.2324 124.368C40.6285 123.353 39.9092 122.414 39.0127 121.659C38.5542 121.299 38.029 120.972 37.5395 120.666C36.9871 120.331 36.4304 120.017 35.8692 119.725C34.7392 119.168 33.5755 118.71 32.3444 118.451C31.7979 118.326 31.2486 118.247 30.6966 118.214C29.5362 118.163 28.3929 118.288 27.2798 118.526C26.0822 118.787 24.9402 119.198 23.8537 119.761C23.1388 120.134 22.439 120.562 21.79 121.068V121.068ZM30.6596 141.444C31.1485 141.505 31.6298 141.537 32.1036 141.54C32.5331 141.154 32.9338 140.734 33.3056 140.283C32.672 140.583 32.0418 140.878 31.415 141.167C31.3202 141.207 31.2365 141.064 31.3313 141.023C32.0656 140.685 32.794 140.344 33.5165 140C33.7771 139.659 34.0138 139.303 34.2268 138.935C33.8771 139.018 33.5223 139.083 33.1625 139.129C32.6094 139.318 32.0598 139.5 31.5137 139.677C31.1445 140.289 30.7346 140.861 30.284 141.394C30.284 141.394 30.29 141.398 30.3019 141.404C30.4577 141.423 30.5216 141.436 30.6596 141.444V141.444ZM28.911 138.579C29.1426 138.617 29.3683 138.652 29.588 138.684C29.8997 138.721 30.2089 138.749 30.5156 138.767C30.7524 138.412 30.9653 138.043 31.1545 137.661L28.911 138.579ZM30.8915 137.58C30.7927 137.586 30.6938 137.593 30.5949 137.599C29.9128 137.681 29.2408 137.801 28.5788 137.958C28.4827 138.125 28.3805 138.288 28.2724 138.448C28.3883 138.467 28.5006 138.492 28.6096 138.523C29.3677 138.2 30.1284 137.885 30.8915 137.58V137.58ZM29.5353 140.177C30.1515 139.961 30.7737 139.749 31.4018 139.541C31.4567 139.445 31.5151 139.344 31.577 139.237C31.1764 139.244 30.7768 139.235 30.3781 139.211C30.1175 139.553 29.8366 139.875 29.5353 140.177V140.177ZM31.8374 138.745C31.8786 138.674 31.9173 138.593 31.9535 138.503C31.7571 138.595 31.5547 138.685 31.3464 138.771C31.5066 138.768 31.6703 138.76 31.8374 138.745V138.745ZM28.467 137.822C28.7262 137.401 28.9641 136.975 29.1808 136.545C28.4644 136.686 27.7614 136.86 27.072 137.065C26.8695 137.36 26.6612 137.652 26.4468 137.941C26.7004 138.024 26.9634 138.105 27.2357 138.182C27.6505 138.041 28.0609 137.921 28.467 137.822V137.822ZM27.4987 138.263C27.7046 138.318 27.9081 138.364 28.109 138.401C28.1965 138.277 28.278 138.15 28.3536 138.019C28.0721 138.094 27.7871 138.176 27.4987 138.263ZM23.9338 120.735C23.5116 120.999 23.1039 121.28 22.7106 121.576C22.9715 121.536 23.229 121.503 23.4831 121.475C24.3817 121.375 25.2759 121.296 26.1658 121.239C26.5028 120.957 26.8339 120.672 27.159 120.384C26.0732 120.424 24.9981 120.541 23.9338 120.735ZM27.3541 120.211C27.5679 120.033 27.7852 119.849 28.0059 119.659C27.116 119.717 26.237 119.796 25.3691 119.898C25.3059 119.925 25.2452 119.961 25.1871 120.007C24.8881 120.168 24.5857 120.334 24.2799 120.507C25.3049 120.353 26.3296 120.254 27.3541 120.211V120.211ZM25.0023 122.471C25.4385 122.485 25.8748 122.499 26.311 122.512C26.5734 122.14 26.8333 121.759 27.0907 121.368C26.801 121.375 26.5171 121.386 26.2393 121.4C25.8235 121.763 25.4112 122.12 25.0023 122.471ZM18.1098 131.153C18.3245 131.729 18.5983 132.244 18.9284 132.744C19.5456 132.307 20.1798 131.895 20.8308 131.51C22.056 130.789 23.3217 130.163 24.6278 129.632C24.8747 129.315 25.125 128.991 25.3787 128.662C24.0135 129.048 22.6753 129.497 21.3641 130.009C21.1691 130.182 20.9765 130.364 20.7865 130.556C20.7096 130.607 20.6052 130.499 20.6643 130.438C20.7687 130.339 20.8731 130.241 20.9775 130.143C20.4226 130.362 19.8737 130.584 19.3307 130.81C19.2538 130.861 19.1701 130.717 19.2649 130.677C19.9223 130.39 20.5941 130.12 21.2804 129.865C21.7186 129.436 22.1543 128.998 22.5875 128.55C22.6406 128.485 22.6997 128.424 22.7647 128.366C22.6521 128.396 22.5454 128.43 22.4447 128.467C21.0672 128.957 19.7452 129.598 18.4815 130.344C18.4046 130.395 18.3209 130.251 18.4156 130.211C19.0223 129.847 19.6459 129.509 20.2864 129.196C20.2788 129.168 20.2713 129.14 20.3097 129.115C20.9206 128.579 21.517 128.027 22.099 127.458C22.3677 127.185 22.6331 126.918 22.895 126.657C22.1891 126.725 21.4892 126.797 20.7952 126.872C20.7032 126.867 20.6909 126.764 20.7396 126.721C20.4888 126.798 20.2379 126.876 19.987 126.953C19.9307 126.968 19.9129 126.958 19.8875 126.919C19.3811 127.357 18.8806 127.798 18.3861 128.242C18.2988 128.311 18.1766 128.192 18.2639 128.124C19.0629 127.427 19.8619 126.73 20.6609 126.033C20.9398 125.797 21.2221 125.556 21.5078 125.308C20.9328 125.452 20.3697 125.603 19.8185 125.761C19.7059 125.791 19.6682 125.65 19.7629 125.61C20.4267 125.422 21.0931 125.243 21.7619 125.074C22.0989 124.793 22.43 124.508 22.7551 124.22C22.0167 124.317 21.2748 124.42 20.5296 124.529C20.4272 124.542 20.3998 124.383 20.4843 124.36C21.2415 124.258 21.9986 124.156 22.7558 124.053C22.824 124.045 22.9016 124.034 22.9886 124.021C23.5156 123.548 24.0486 123.078 24.5875 122.612C23.2479 122.624 21.8924 122.746 20.7668 123.5C20.672 123.541 20.6061 123.407 20.6831 123.357C21.5292 122.798 22.54 122.572 23.5322 122.503C23.9465 122.472 24.3564 122.463 24.762 122.475C24.8201 122.429 24.8783 122.383 24.9364 122.338C25.2753 122.025 25.6201 121.717 25.9708 121.412C24.803 121.483 23.6325 121.601 22.4592 121.764C21.2202 122.715 20.0828 123.819 19.0778 125.024C19.0263 125.113 18.9145 124.977 18.9735 124.916C19.4516 124.335 19.962 123.781 20.5046 123.253C21.0215 122.743 21.5673 122.265 22.142 121.819C21.9305 121.855 21.7224 121.886 21.5178 121.911C21.4155 121.923 21.3777 121.782 21.4622 121.76C21.7795 121.705 22.0933 121.656 22.4037 121.613C22.7713 121.333 23.1474 121.067 23.532 120.813C22.9214 120.936 22.3191 121.072 21.7254 121.221C21.6869 121.247 21.6334 121.216 21.6361 121.17C20.3662 122.174 19.2947 123.412 18.5801 124.855C17.6051 126.791 17.3544 129.122 18.1098 131.153V131.153ZM26.5232 122.516C26.8249 122.516 27.1231 122.521 27.4179 122.533C27.6872 122.149 27.9445 121.758 28.19 121.36C27.8884 121.36 27.5833 121.367 27.2747 121.379C27.0242 121.758 26.7677 122.134 26.5053 122.506C26.5053 122.506 26.5113 122.509 26.5232 122.516ZM24.8519 124.669C24.4869 125.108 24.1194 125.539 23.7494 125.96C24.1587 125.911 24.567 125.877 24.9744 125.858C25.2075 125.564 25.4406 125.27 25.6737 124.977C25.7749 124.829 25.8821 124.684 25.9952 124.543C25.6116 124.576 25.2305 124.618 24.8519 124.669ZM26.1264 124.357C26.2995 124.14 26.4701 123.913 26.6382 123.677C26.2596 123.728 25.8904 123.777 25.5306 123.823C25.3506 124.052 25.1741 124.276 25.001 124.493C25.3795 124.442 25.7547 124.397 26.1264 124.357V124.357ZM23.5722 126.143C23.4797 126.248 23.3872 126.354 23.2947 126.459C23.7228 126.405 24.1533 126.36 24.5863 126.324C24.6601 126.224 24.7397 126.127 24.8254 126.034C24.5663 126.043 24.3097 126.061 24.0556 126.089C23.9004 126.111 23.7393 126.129 23.5722 126.143V126.143ZM24.1048 127.117C23.8341 127.421 23.5669 127.719 23.3032 128.011C23.7861 127.861 24.2776 127.724 24.7775 127.601C25.2893 127.484 25.8061 127.385 26.328 127.306C26.5648 126.951 26.7862 126.595 26.9924 126.238C26.2183 126.314 25.4441 126.391 24.6701 126.468C24.4782 126.69 24.2898 126.906 24.1048 127.117V127.117ZM27.0954 126.059L27.1366 125.988C26.4363 125.964 25.74 125.975 25.0478 126.019C24.9622 126.113 24.8826 126.209 24.8088 126.31C25.571 126.226 26.3332 126.143 27.0954 126.059ZM27.2294 125.827C27.4973 125.363 27.7568 124.886 28.0078 124.396C27.4095 124.416 26.8068 124.457 26.1998 124.519C25.8774 124.967 25.5372 125.405 25.179 125.833C25.5865 125.815 26.0024 125.809 26.4267 125.816C26.6977 125.814 26.9652 125.817 27.2294 125.827V125.827ZM24.8354 122.636C24.3102 123.079 23.7875 123.531 23.2674 123.992C23.9939 123.888 24.7203 123.784 25.4468 123.679C25.7006 123.35 25.9518 123.011 26.2004 122.663C25.7582 122.645 25.2879 122.636 24.8354 122.636V122.636ZM23.0441 124.172C22.9141 124.288 22.7806 124.409 22.6437 124.536C22.4555 124.697 22.2708 124.852 22.0894 125.001C22.214 124.978 22.3419 124.949 22.4733 124.914C23.2273 124.762 23.9923 124.632 24.7682 124.525C24.9413 124.308 25.1178 124.084 25.2978 123.855C24.5525 123.964 23.8013 124.07 23.0441 124.172V124.172ZM21.8353 125.236C21.257 125.743 20.6728 126.246 20.0825 126.746C20.7976 126.524 21.5194 126.346 22.2477 126.211C22.6657 126.12 23.0792 126.049 23.4885 126C23.8773 125.574 24.2541 125.141 24.6191 124.701C24.6191 124.701 24.6157 124.707 24.6088 124.719C23.6777 124.847 22.7532 125.02 21.8353 125.236V125.236ZM20.8523 126.691C21.5769 126.617 22.3016 126.544 23.0262 126.471C23.0381 126.477 23.0475 126.475 23.0544 126.463C23.1519 126.376 23.247 126.281 23.3395 126.175C22.4953 126.291 21.6662 126.463 20.8523 126.691V126.691ZM20.6476 129.024C21.4195 128.676 22.204 128.376 23.001 128.122C23.4823 127.591 23.961 127.05 24.4373 126.5C24.0042 126.535 23.5677 126.577 23.1278 126.624C22.3452 127.458 21.5185 128.258 20.6476 129.024V129.024ZM21.6492 129.721C22.921 129.25 24.2113 128.829 25.5202 128.458C25.5802 128.381 25.6401 128.305 25.7001 128.228C25.8751 127.98 26.0441 127.729 26.2071 127.474C25.1496 127.657 24.1123 127.915 23.095 128.248C22.6156 128.748 22.1337 129.239 21.6492 129.721ZM24.9225 129.493C25.7795 129.163 26.6466 128.87 27.5237 128.615C27.6524 128.42 27.7845 128.218 27.9201 128.011C27.683 128.064 27.4458 128.118 27.2087 128.171C26.6832 128.312 26.1576 128.453 25.632 128.594C25.404 128.906 25.1674 129.206 24.9225 129.493V129.493ZM27.197 126.213C27.1283 126.332 27.0596 126.451 26.9909 126.57C26.8416 126.801 26.6923 127.032 26.543 127.263C27.1825 127.172 27.833 127.104 28.4944 127.057C28.6662 126.76 28.838 126.462 29.0097 126.165C28.8207 126.135 28.6282 126.111 28.4323 126.093C28.0111 126.136 27.5993 126.176 27.197 126.213ZM27.5967 126.015L27.3206 125.999L27.2897 126.052C27.3955 126.034 27.4978 126.022 27.5967 126.015ZM28.1215 131.578C27.8641 131.969 27.6067 132.36 27.3494 132.751C27.8117 132.637 28.2801 132.526 28.7543 132.419C28.763 132.377 28.7718 132.334 28.7805 132.292C28.8073 131.998 28.8239 131.722 28.8508 131.428C28.6136 131.481 28.3706 131.531 28.1215 131.578V131.578ZM28.8797 131.254C28.8815 131.223 28.8893 131.196 28.9031 131.172C28.9897 130.651 29.176 130.164 29.3622 129.676C29.1373 130.038 28.9065 130.397 28.6697 130.752C28.5342 130.959 28.3952 131.173 28.2527 131.392C28.4592 131.337 28.6682 131.291 28.8797 131.254V131.254ZM28.4216 133.655C28.2535 133.891 28.088 134.137 27.9249 134.392C28.0563 134.357 28.1877 134.321 28.3191 134.286C28.4002 134.063 28.4719 133.843 28.5342 133.625C28.4967 133.635 28.4592 133.645 28.4216 133.655ZM28.5734 133.433C28.5803 133.422 28.5872 133.41 28.594 133.398C28.5872 133.41 28.5803 133.422 28.5734 133.433ZM27.7834 134.596C27.358 135.223 26.9325 135.85 26.507 136.477C26.7955 136.389 27.0933 136.299 27.4004 136.207C27.5104 136.017 27.6109 135.829 27.7021 135.643C27.9006 135.258 28.0813 134.863 28.2339 134.475C28.0837 134.515 27.9336 134.555 27.7834 134.596V134.596ZM24.9297 132.448C24.5442 132.924 24.1467 133.392 23.7373 133.854C24.1402 133.706 24.5455 133.567 24.9535 133.438C25.2997 133.003 25.6399 132.565 25.9742 132.123C25.6295 132.226 25.2813 132.334 24.9297 132.448V132.448ZM26.1336 131.93C26.5554 131.364 26.9627 130.782 27.3557 130.184C27.0348 130.3 26.7138 130.416 26.3929 130.532C26.158 130.857 25.9171 131.178 25.6703 131.495C25.4834 131.737 25.2966 131.978 25.1097 132.219C25.4545 132.117 25.7957 132.02 26.1336 131.93V131.93ZM25.2172 133.352C25.8384 133.155 26.4681 132.972 27.1063 132.801C27.3756 132.417 27.6423 132.023 27.9066 131.62C27.7564 131.661 27.6157 131.698 27.4843 131.734C27.0594 131.837 26.6405 131.945 26.2276 132.055C25.8933 132.497 25.5565 132.929 25.2172 133.352ZM26.1479 134.461C26.0054 134.68 25.8571 134.896 25.7027 135.108C26.3515 134.864 27.0112 134.642 27.6818 134.442C27.843 134.218 28.0017 133.984 28.1579 133.741C28.1135 133.763 28.0631 133.781 28.0068 133.796C27.3906 134.012 26.771 134.233 26.1479 134.461V134.461ZM28.9864 132.553C28.9557 132.551 28.9216 132.556 28.8841 132.566C28.8872 132.615 28.8845 132.661 28.8758 132.704C28.9101 132.644 28.947 132.594 28.9864 132.553V132.553ZM28.7433 132.603C28.3885 132.668 28.0362 132.742 27.6865 132.826C27.5363 132.866 27.3768 132.909 27.2079 132.954C26.9111 133.386 26.6178 133.812 26.3279 134.231C26.9885 133.994 27.6491 133.757 28.3097 133.519C28.4366 133.354 28.5609 133.18 28.6827 132.997C28.697 132.862 28.7172 132.731 28.7433 132.603V132.603ZM29.1679 129.683C28.6373 129.805 28.1177 129.95 27.6091 130.116C27.2111 130.695 26.7978 131.274 26.3691 131.851C26.9203 131.694 27.4766 131.555 28.0378 131.434C28.417 130.86 28.7937 130.276 29.1679 129.683ZM28.8746 127.8C28.6256 127.847 28.3791 127.903 28.135 127.968C28.0132 128.152 27.888 128.341 27.7593 128.537C28.022 128.466 28.2814 128.402 28.5373 128.343C28.6472 128.153 28.7597 127.972 28.8746 127.8V127.8ZM27.6356 128.751C27.2839 129.278 26.9296 129.795 26.5729 130.303C26.8819 130.18 27.19 130.072 27.4972 129.98C27.8214 129.501 28.1304 129.021 28.4239 128.54C28.1493 128.603 27.8865 128.674 27.6356 128.751ZM26.4296 127.46C26.2203 127.767 26.0016 128.077 25.7736 128.39C26.5243 128.189 27.2777 127.997 28.0335 127.814C28.1503 127.612 28.2696 127.419 28.3914 127.236C27.8169 127.269 27.244 127.327 26.6727 127.41C26.5857 127.423 26.5047 127.44 26.4296 127.46V127.46ZM24.7219 129.758C24.5163 130.004 24.3081 130.241 24.0975 130.468C23.3969 131.27 22.653 132.022 21.8659 132.726C21.8915 132.709 21.9172 132.692 21.9428 132.675C23.1069 131.896 24.3397 131.203 25.628 130.662C25.855 130.571 26.0787 130.486 26.2989 130.407C26.575 130.011 26.8512 129.615 27.1273 129.219C27.2217 129.083 27.3066 128.95 27.3822 128.819C27.0938 128.906 26.8019 128.999 26.5066 129.099C25.8973 129.302 25.3024 129.522 24.7219 129.758V129.758ZM24.4094 129.887C23.7657 130.15 23.139 130.439 22.5291 130.753C21.3094 131.381 20.1406 132.087 19.0225 132.869C19.3375 133.313 19.7013 133.713 20.0754 134.096C20.1917 134.005 20.3114 133.907 20.4346 133.804C20.3989 133.783 20.4016 133.737 20.4401 133.712C21.1635 133.146 21.8522 132.544 22.5061 131.906C23.1719 131.275 23.8063 130.602 24.4094 129.887ZM20.1797 134.204C20.4598 134.461 20.7527 134.709 21.0584 134.949C21.5331 134.731 22.0104 134.523 22.4902 134.324C22.7992 134.201 23.1108 134.087 23.4248 133.983C23.7092 133.655 23.9936 133.328 24.278 133C24.3979 132.847 24.5179 132.694 24.6379 132.542C23.4755 132.934 22.3401 133.389 21.2317 133.907C21.137 133.947 21.0532 133.804 21.148 133.763C21.7116 133.502 22.2836 133.253 22.8642 133.017C23.5129 132.773 24.1701 132.541 24.8357 132.323C25.2813 131.771 25.709 131.208 26.1189 130.636C25.255 130.978 24.4121 131.38 23.5903 131.842C22.3857 132.526 21.2395 133.316 20.1797 134.204ZM21.1806 135.067C21.6748 135.448 22.1897 135.793 22.697 136.109C22.7972 136.183 22.9068 136.254 23.0258 136.323C23.3692 136.141 23.7185 135.961 24.0738 135.786C24.5229 135.585 24.9746 135.394 25.4287 135.212C25.5831 134.999 25.7408 134.781 25.902 134.557C24.7873 134.976 23.68 135.424 22.5803 135.899C22.5034 135.95 22.4197 135.807 22.5145 135.766C23.008 135.543 23.5041 135.33 24.0026 135.126C24.6839 134.853 25.3676 134.589 26.0539 134.335C26.3694 133.898 26.679 133.458 26.9826 133.015C26.3325 133.179 25.6841 133.368 25.0372 133.581C24.5847 134.145 24.1144 134.699 23.6263 135.242C23.5569 135.321 23.4526 135.213 23.522 135.134C23.9451 134.648 24.3623 134.159 24.7735 133.667C24.3468 133.801 23.9286 133.949 23.5189 134.109C23.2157 134.442 22.9066 134.771 22.5916 135.097C22.5222 135.176 22.4 135.057 22.4872 134.989C22.7116 134.738 22.9454 134.484 23.1885 134.228C22.5142 134.489 21.8449 134.769 21.1806 135.067V135.067ZM25.1913 139.168C25.1274 139.155 25.1048 139.07 25.1714 139.037C25.2602 138.993 25.349 138.95 25.4379 138.906C25.6229 138.695 25.8044 138.491 25.9826 138.292C25.5793 138.138 25.1829 137.973 24.7935 137.796C24.7747 137.801 24.7559 137.806 24.7372 137.811C24.6705 137.844 24.6376 137.777 24.6404 137.731C24.4431 137.633 24.2518 137.539 24.0664 137.447C23.9025 137.511 23.7327 137.572 23.5569 137.629C23.4724 137.652 23.4347 137.511 23.5295 137.471C23.6489 137.429 23.759 137.389 23.8598 137.352C23.4602 137.137 23.0735 136.914 22.6996 136.682C22.6176 136.714 22.5382 136.756 22.4613 136.806C22.3843 136.857 22.3006 136.714 22.3954 136.673C22.4467 136.639 22.4945 136.611 22.5389 136.589C21.9696 136.229 21.4259 135.852 20.9078 135.457C20.8314 135.397 20.7669 135.344 20.7143 135.298C20.6955 135.303 20.6767 135.308 20.6579 135.313C20.5632 135.353 20.4691 135.228 20.5742 135.169C19.7642 134.511 19.0338 133.757 18.4677 132.882C18.0106 132.19 17.6586 131.439 17.4473 130.651C17.5359 131.432 17.7362 132.198 18.0481 132.949C18.0783 133.062 18.1517 133.223 18.2176 133.357C18.2834 133.49 18.3493 133.623 18.4152 133.756C18.5588 134.03 18.7178 134.304 18.8921 134.579C19.2195 135.125 19.5627 135.561 19.9594 136.028C20.19 136.288 20.4181 136.539 20.6437 136.78C21.858 137.934 23.242 138.875 24.7393 139.621C24.9019 139.477 25.0525 139.326 25.1913 139.168V139.168ZM24.2856 137.027C24.3639 137.056 24.4387 137.091 24.5101 137.132C24.6365 137.078 24.7687 137.028 24.907 136.981C25.3593 136.829 25.8082 136.684 26.2536 136.545C26.571 136.077 26.8884 135.61 27.2058 135.143C27.3207 134.971 27.4382 134.809 27.5582 134.656C26.8687 134.861 26.1903 135.088 25.5228 135.337C25.1129 135.91 24.7005 136.473 24.2856 137.027V137.027ZM24.7167 137.228C24.8902 137.312 25.0671 137.391 25.2474 137.463C25.6059 137.337 25.9669 137.22 26.3304 137.112C26.5437 137.045 26.7536 136.984 26.9601 136.929C27.075 136.757 27.1806 136.588 27.2768 136.421C26.4184 136.671 25.5651 136.94 24.7167 137.228V137.228ZM25.4541 137.558C25.7365 137.674 26.0164 137.78 26.2937 137.877C26.3469 137.812 26.4034 137.742 26.4634 137.665C26.5852 137.482 26.7036 137.304 26.8186 137.132C26.3612 137.265 25.9064 137.407 25.4541 137.558ZM30.1103 141.365C30.1053 141.347 30.1156 141.329 30.1412 141.312C30.5525 140.819 30.9314 140.3 31.2781 139.755C30.6688 139.958 30.0688 140.159 29.4783 140.358C29.4219 140.373 29.3863 140.352 29.3787 140.324C29.3393 140.365 29.294 140.402 29.2427 140.436C29.1733 140.515 29.0512 140.397 29.1384 140.328C29.4772 140.016 29.7991 139.678 30.1041 139.315C29.346 139.639 28.5938 139.966 27.8475 140.297C27.7527 140.337 27.669 140.194 27.7638 140.153C28.5032 139.834 29.246 139.51 29.9922 139.179C29.3551 139.128 28.7266 139.035 28.1068 138.9C28.0436 138.927 27.9805 138.954 27.9173 138.981C27.648 139.365 27.3634 139.748 27.0634 140.13C27.0119 140.219 26.8897 140.101 26.9591 140.022C27.199 139.716 27.4331 139.407 27.6611 139.094C27.2889 139.244 26.9261 139.392 26.5727 139.537C26.4779 139.577 26.3942 139.434 26.4889 139.393C26.9243 139.216 27.3691 139.037 27.8233 138.855L27.8336 138.837C27.791 138.828 27.7484 138.82 27.7059 138.811C27.3722 138.729 27.0454 138.636 26.7254 138.53C26.3225 138.679 25.9307 138.849 25.5497 139.042C25.3391 139.269 25.1225 139.493 24.8999 139.714C25.6364 140.059 26.3934 140.37 27.1711 140.644C27.7446 140.832 28.3318 140.997 28.9328 141.138C29.2239 141.21 29.5219 141.271 29.8268 141.321C29.9238 141.345 30.0183 141.36 30.1103 141.365V141.365ZM29.266 136.356C29.3571 136.171 29.4517 135.979 29.5498 135.782C29.2119 135.873 28.874 135.963 28.5362 136.054C28.1796 136.149 27.8289 136.248 27.4842 136.351C27.3999 136.524 27.3003 136.697 27.1853 136.868C27.8798 136.682 28.5734 136.511 29.266 136.356V136.356ZM16.8518 127.189C17.3317 125.039 18.3939 123.034 19.8226 121.384C19.5094 121.679 19.22 121.988 18.9544 122.311C18.0779 123.376 17.4232 124.592 17.0849 125.92C16.9756 126.357 16.9048 126.768 16.8518 127.189ZM26.3844 122.674C26.3569 122.721 26.3201 122.771 26.2738 122.824C26.0783 123.108 25.8708 123.385 25.6515 123.655C26.0301 123.604 26.4027 123.549 26.7694 123.491C26.9512 123.231 27.1364 122.965 27.3251 122.693C27.0116 122.687 26.698 122.68 26.3844 122.674V122.674ZM23.1865 136.416C23.4959 136.594 23.8146 136.771 24.1428 136.944C24.5234 136.45 24.898 135.952 25.2666 135.451C24.5478 135.734 23.8545 136.056 23.1865 136.416V136.416ZM25.7991 138.733C26.033 138.63 26.2601 138.539 26.4803 138.46C26.3664 138.41 26.2549 138.37 26.146 138.339C26.0397 138.468 25.9241 138.599 25.7991 138.733ZM31.7713 139.23C31.7232 139.314 31.6786 139.391 31.6373 139.462C31.8951 139.373 32.1528 139.284 32.4106 139.195C32.194 139.213 31.981 139.224 31.7713 139.23ZM42.6756 135.554C42.5588 135.756 42.442 135.959 42.3252 136.161C41.5991 137.336 40.7274 138.475 39.7108 139.411C38.7019 140.376 37.5302 141.127 36.2447 141.623C35.0717 142.088 33.8131 142.289 32.5551 142.325C31.9756 142.339 31.392 142.319 30.8042 142.266C30.8775 142.276 30.9507 142.287 31.0239 142.297C31.6625 142.428 32.2221 142.489 32.8764 142.51C33.2019 142.523 33.5189 142.524 33.8274 142.512C33.9876 142.509 34.1453 142.497 34.3005 142.476C34.431 142.456 34.5972 142.456 34.6638 142.423C35.2777 142.35 35.8739 142.21 36.4526 142.005C36.7548 141.893 36.9725 141.805 37.2671 141.666C37.5523 141.529 37.8325 141.373 38.1077 141.199C38.6461 140.843 39.131 140.457 39.5932 139.986C40.0733 139.526 40.5205 138.998 40.8729 138.512C41.5571 137.574 42.1521 136.585 42.6756 135.554V135.554Z" fill="#E4DBE0"/>
</svg>
